<svg id="Layer_1" data-name="Layer 1" xmlns="http://www.w3.org/2000/svg" viewBox="0 0 450 224.94"><defs><style>.cls-1{fill:#ddb19e;}.cls-2{fill:#634544;}.cls-3{fill:#573b3b;}.cls-4,.cls-6{fill:#ba8779;}.cls-5{fill:#aa776b;}.cls-11,.cls-12,.cls-6,.cls-9{opacity:0.5;}.cls-7{fill:#33211f;}.cls-8{fill:#4c3232;}.cls-10,.cls-23{fill:#fff;}.cls-10,.cls-61{opacity:0.6;}.cls-11{fill:#b4bcd3;}.cls-12,.cls-24{fill:#cbd2e9;}.cls-13{fill:#3a2323;}.cls-14{fill:#c1c64e;}.cls-15{fill:#a2ad3a;}.cls-16{fill:#8e9324;}.cls-17{fill:#db3b43;}.cls-18{fill:#ed4b4e;}.cls-19{fill:#ef6159;}.cls-20{fill:#59352e;}.cls-21{fill:#3f241e;}.cls-22{fill:#7c7c14;}.cls-25{fill:#7e7ece;}.cls-26{fill:#b0bad6;}.cls-27{fill:#6969c1;}.cls-28{fill:#513634;}.cls-29{fill:#9797dd;}.cls-30{fill:#b4b4ef;}.cls-31{fill:#f4605c;}.cls-32{fill:#ffdd29;}.cls-33{fill:#684848;}.cls-34{fill:#492e2e;}.cls-35{fill:#634342;}.cls-36{fill:#ffa993;}.cls-37{fill:#ffc1af;}.cls-38{fill:#3d252e;}.cls-39{fill:#5252a7;}.cls-40{fill:#6969be;}.cls-41{fill:#aeb9da;}.cls-42{fill:#c8cfe6;}.cls-43{fill:#ff9c89;}.cls-44{fill:#d4a180;}.cls-45{fill:#bd8868;}.cls-46{fill:#ffc2b0;}.cls-47{fill:#7d7dce;}.cls-48{fill:#915a41;}.cls-49{fill:#ffbfad;}.cls-50{fill:#a56d51;}.cls-51{fill:#c08b68;}.cls-52{fill:#ffaa94;}.cls-53{fill:#f45b63;}.cls-54{fill:#3f2d37;}.cls-55{fill:#33222b;}.cls-56{fill:#ff9d8a;}.cls-57{fill:#281b22;}.cls-58{fill:#5555ad;}.cls-59{fill:#492b23;}.cls-60{fill:#352019;}.cls-61{fill:#ddd;}.cls-62{fill:#e9dede;}.cls-63{fill:#d3c7ba;}.cls-64{fill:#e3e6f1;}.cls-65{fill:#dadeea;}.cls-66{fill:#59404a;}.cls-67{fill:#49303a;}</style></defs><title>arab_people</title><rect class="cls-1" width="449.94" height="224.94"/><polygon class="cls-2" points="156.4 0 0 0 0 123.92 156.4 33.62 156.4 0"/><polygon class="cls-3" points="156.38 0 156.38 33.54 450 202.84 450 0 156.38 0"/><polygon class="cls-4" points="156.38 26.15 0 116.44 0 124.03 156.38 33.74 156.38 26.15"/><polygon class="cls-5" points="156.38 33.74 450 203.26 450 195.68 156.38 26.15 156.38 33.74"/><polygon class="cls-6" points="86.65 75.83 126.17 98.66 195.32 57.45 156.88 35.22 86.65 75.83"/><path class="cls-7" d="M122.73,203.37c0,.77,1.19,1.4,2.65,1.4s2.65-.63,2.65-1.4V186h-5.3Z" transform="translate(0 -110)"/><path class="cls-8" d="M125.38,184.77c-1.46,0-2.65.63-2.65,1.4s1.19,1.41,2.65,1.41S128,187,128,186.17,126.84,184.77,125.38,184.77Z" transform="translate(0 -110)"/><path class="cls-7" d="M93.22,186.43c0,.78,1.18,1.41,2.65,1.41s2.64-.63,2.64-1.41V169H93.22Z" transform="translate(0 -110)"/><path class="cls-8" d="M95.87,167.83c-1.47,0-2.65.63-2.65,1.41s1.18,1.4,2.65,1.4,2.64-.63,2.64-1.4S97.33,167.83,95.87,167.83Z" transform="translate(0 -110)"/><path class="cls-7" d="M183.65,168.15c0,.78,1.18,1.4,2.64,1.4s2.65-.62,2.65-1.4v-17.4h-5.29Z" transform="translate(0 -110)"/><path class="cls-8" d="M186.29,149.55c-1.46,0-2.64.63-2.64,1.41s1.18,1.4,2.64,1.4,2.65-.63,2.65-1.4S187.75,149.55,186.29,149.55Z" transform="translate(0 -110)"/><path class="cls-7" d="M154.13,151.21c0,.78,1.18,1.41,2.65,1.41s2.64-.63,2.64-1.41v-17.4h-5.29Z" transform="translate(0 -110)"/><path class="cls-8" d="M156.78,132.61c-1.47,0-2.65.63-2.65,1.41s1.18,1.41,2.65,1.41,2.64-.63,2.64-1.41S158.24,132.61,156.78,132.61Z" transform="translate(0 -110)"/><g class="cls-9"><polygon class="cls-10" points="87.52 58.56 125.38 80.53 195 40.22 157.29 18.15 87.52 58.56"/><polygon class="cls-11" points="125.38 83.84 195 43.53 195 40.22 125.38 80.53 125.38 83.84"/><polygon class="cls-12" points="87.52 61.87 125.38 83.84 125.38 80.53 87.52 58.56 87.52 61.87"/></g><path class="cls-13" d="M131.24,154.25h0l.07.15h0c.56,1.08,2.4,1.88,4.61,1.88,2.43,0,4.42-1,4.74-2.2h0l3.16-7.9H127.5Z" transform="translate(0 -110)"/><path class="cls-2" d="M135.66,141.11c-4.58,0-8.3,2-8.3,4.42s3.72,4.42,8.3,4.42,8.31-2,8.31-4.42S140.25,141.11,135.66,141.11Z" transform="translate(0 -110)"/><path class="cls-13" d="M135.72,141.66c-4.11,0-7.44,1.63-7.44,3.64a2.3,2.3,0,0,0,.76,1.58c-.12-1.85,1.81-3.43,4.09-3.73,6-.82,9,1.33,9.56,3.38a2.12,2.12,0,0,0,.47-1.23C143.16,143.29,139.83,141.66,135.72,141.66Z" transform="translate(0 -110)"/><path class="cls-8" d="M133.13,143.15c-2.28.3-4.21,1.88-4.09,3.73,1.21,1.21,3.73,2.05,6.68,2.05,3.22,0,5.93-1,7-2.4C142.16,144.48,139.16,142.33,133.13,143.15Z" transform="translate(0 -110)"/><path class="cls-14" d="M134.53,128a8.93,8.93,0,0,1,.2,3.22c-.27,1.36-.54,3-.54,3s1.75,3,2.52,0a8.83,8.83,0,0,0-.38-3.52A4.36,4.36,0,0,0,134.53,128Z" transform="translate(0 -110)"/><path class="cls-15" d="M134.94,137c.61,1.7,3.73.57,3.49-1.82a20.89,20.89,0,0,1,.68-5.84C136.61,131.27,134,134.38,134.94,137Z" transform="translate(0 -110)"/><path class="cls-16" d="M132.46,129.65a6.68,6.68,0,0,1,.45,3.23,30.17,30.17,0,0,1-.82,3.43l1.47,3.59,2.17-2.92a11.23,11.23,0,0,0-.79-4.48A7.08,7.08,0,0,0,132.46,129.65Z" transform="translate(0 -110)"/><path class="cls-14" d="M139.11,132.88a51,51,0,0,1-3.38,5.14l1.58,3.15a35.47,35.47,0,0,0,3.23-6.07c.82-2.4.55-7.07.55-7.07A27.2,27.2,0,0,1,139.11,132.88Z" transform="translate(0 -110)"/><path class="cls-16" d="M137.31,140.88l1.78,2.91,3.17-6s.57-2.69,1-4.88a33,33,0,0,0,.53-3.56,63.43,63.43,0,0,0-3.73,5.27C139.08,136.33,137.31,140.88,137.31,140.88Z" transform="translate(0 -110)"/><path class="cls-14" d="M128.47,129.32a33,33,0,0,0,.53,3.56c.42,2.19,1,4.88,1,4.88l3.17,6,1.78-2.91s-1.77-4.55-2.74-6.29A63.43,63.43,0,0,0,128.47,129.32Z" transform="translate(0 -110)"/><path class="cls-15" d="M134,136.86a56.41,56.41,0,0,0-1.93,7.16s3.5,5.1,7-.23c.2-.3-1.24-5.47-1.78-6.93S134.88,134.87,134,136.86Z" transform="translate(0 -110)"/><path class="cls-14" d="M140.31,138.46c-2.66,3.62-6.29,9.34-6.29,9.34s3.81.59,5.36-.55c2.81-2.05,4.11-7.61,5.21-10.24a3.44,3.44,0,0,1,3.31-2.42C145.43,132.92,143,134.84,140.31,138.46Z" transform="translate(0 -110)"/><path class="cls-16" d="M123.43,134.59a3.44,3.44,0,0,1,3.31,2.42c1.1,2.63,2.28,8.09,5,10.31,1.9,1.58,6,.88,6,.88s-4.06-6.12-6.71-9.74S125.9,132.92,123.43,134.59Z" transform="translate(0 -110)"/><path class="cls-14" d="M136.15,138.18c-.17.29-.61.87-.61.87a6.32,6.32,0,0,0-.64-1.24A6.8,6.8,0,0,0,134,137l1.45,3.29a12.53,12.53,0,0,0,1.21-1.85c.29-.76.63-1.44.63-1.44A4.74,4.74,0,0,0,136.15,138.18Z" transform="translate(0 -110)"/><path class="cls-6" d="M234.18,265.72c-18.89,0-34.3,8.38-35.14,18.9,0,.3,0,.6,0,.9,0,10.94,15.75,19.8,35.18,19.8s35.18-8.86,35.18-19.8c0-.3,0-.6,0-.9C268.48,274.1,253.07,265.72,234.18,265.72Z" transform="translate(0 -110)"/><path class="cls-6" d="M172.43,270.48c-9.28,0-16.84,4.12-17.26,9.28,0,.15,0,.3,0,.45,0,5.37,7.74,9.72,17.28,9.72s17.28-4.35,17.28-9.72c0-.15,0-.3,0-.45C189.28,274.6,181.71,270.48,172.43,270.48Z" transform="translate(0 -110)"/><path class="cls-6" d="M36.89,221.58c-6.21,0-11.27,2.75-11.55,6.21,0,.1,0,.2,0,.3,0,3.59,5.17,6.5,11.56,6.5s11.56-2.91,11.56-6.5c0-.1,0-.2,0-.3C48.16,224.33,43.1,221.58,36.89,221.58Z" transform="translate(0 -110)"/><path class="cls-6" d="M199.78,187.66c-6.07,0-11,2.7-11.3,6.08,0,.09,0,.19,0,.29,0,3.51,5.07,6.36,11.31,6.36s11.31-2.85,11.31-6.36a2.71,2.71,0,0,0,0-.29C210.81,190.36,205.86,187.66,199.78,187.66Z" transform="translate(0 -110)"/><path class="cls-6" d="M129,265.09c-8-2.54-29.73,8.39-29.73,8.39-5.54,3.44-3.28,10.26-.87,15.8,2.61,6,11.17,1.33,15.42-1.52s16.42-7.14,21.67-11.16S137,267.63,129,265.09Z" transform="translate(0 -110)"/><path class="cls-6" d="M73.27,315a225.46,225.46,0,0,0-21.43-11.7c-7.4-3.61-9.9-4.44-14.13-1.89-4.47,2.7.9,8.39,7.65,13.59s16.86,11,22.06,10.45S79.17,318.82,73.27,315Z" transform="translate(0 -110)"/><path class="cls-6" d="M322.67,298.4c-4.15-2.68-14.68,4.47-22.07,8.08a225.46,225.46,0,0,0-21.43,11.7c-5.9,3.8.65,9.95,5.85,10.45s19.72-5.88,26.48-11.08S329.46,302.78,322.67,298.4Z" transform="translate(0 -110)"/><path class="cls-17" d="M199.88,188c-4.36,0-7.9,2-7.9,4.44s3.54,4.45,7.9,4.45,7.9-2,7.9-4.45S204.24,188,199.88,188Z" transform="translate(0 -110)"/><path class="cls-18" d="M199.87,182.41l-9.93-2.86a18.5,18.5,0,0,0,0,8.43,10,10,0,0,0,1.73,3.64c1.16,1.88,4.33,3.24,8.08,3.24a14,14,0,0,0,3.89-.53.38.38,0,0,0,.15,0c2.53-.76,4.88-2.18,6-6.35a18.5,18.5,0,0,0,0-8.43Z" transform="translate(0 -110)"/><path class="cls-19" d="M199.88,174c-5.49,0-9.94,2.5-9.94,5.59s4.45,5.6,9.94,5.6,9.94-2.51,9.94-5.6S205.37,174,199.88,174Z" transform="translate(0 -110)"/><path class="cls-18" d="M199.88,174.81c-4.66,0-8.43,2.12-8.43,4.74a2.49,2.49,0,0,0,.08.61c.53-2.33,4.06-4.13,8.35-4.13s7.82,1.8,8.35,4.13a2.49,2.49,0,0,0,.08-.61C208.31,176.93,204.54,174.81,199.88,174.81Z" transform="translate(0 -110)"/><path class="cls-20" d="M199.88,176c-4.29,0-7.82,1.8-8.35,4.13.53,2.33,4.06,4.14,8.35,4.14s7.82-1.81,8.35-4.14C207.7,177.83,204.17,176,199.88,176Z" transform="translate(0 -110)"/><path class="cls-21" d="M198.41,178.87h0a.45.45,0,0,0,0,.16c0,.46.65.82,1.46.82s1.46-.36,1.46-.82a.45.45,0,0,0,0-.16h0V121.93h-2.92Z" transform="translate(0 -110)"/><path class="cls-16" d="M190.57,113.34l8.24,5.44a10.6,10.6,0,0,0-1.92-5.44C195,110.44,190.57,113.34,190.57,113.34Z" transform="translate(0 -110)"/><path class="cls-22" d="M201.33,112.73c-4.17.61-4,5.28-4,5.28l11.83-1.26S205.5,112.11,201.33,112.73Z" transform="translate(0 -110)"/><path class="cls-22" d="M198.81,118.78l1.06,2.25s4.43,1.62,11.69.45A122.11,122.11,0,0,0,226.2,118a35.48,35.48,0,0,0-11.36-1.69C208.05,116.33,198.81,118.78,198.81,118.78Z" transform="translate(0 -110)"/><path class="cls-16" d="M200.2,121l.32,0,0,0Z" transform="translate(0 -110)"/><path class="cls-22" d="M200.52,121.05a23.65,23.65,0,0,0,13.27,6.46c8,.88,13.11-1.09,13.11-1.09s-7.32-2.31-12.88-3.59A100.25,100.25,0,0,0,200.52,121.05Z" transform="translate(0 -110)"/><path class="cls-22" d="M182.35,129.44c-2.9,3.14-6.21,14.35-6.21,14.35s8.66-9.49,11.94-13.7S194.93,120,194.93,120,189.25,121.93,182.35,129.44Z" transform="translate(0 -110)"/><path class="cls-22" d="M198.41,119.66s-1.52,10.05,2.92,19.16l7,14.37s2-13.05-1.43-20.18A77.7,77.7,0,0,0,198.41,119.66Z" transform="translate(0 -110)"/><path class="cls-22" d="M190.09,141.16c-1.25,9.06,0,13.38,0,13.38s4.78-13.34,6.87-21.3a57.49,57.49,0,0,0,1.84-14.93S191.33,132.11,190.09,141.16Z" transform="translate(0 -110)"/><path class="cls-16" d="M184.74,131.59a152.79,152.79,0,0,0-10.18,19.73s12-12.78,16.34-18.5a139.67,139.67,0,0,0,9.3-14.77C199.13,117.54,190.71,122,184.74,131.59Z" transform="translate(0 -110)"/><path class="cls-16" d="M198.57,118.55c-.24,1.66,3.65,14.67,9.85,22.22s11.34,13.46,11.34,13.46-2.34-10.89-7.14-19.26S198.57,118.55,198.57,118.55Z" transform="translate(0 -110)"/><path class="cls-16" d="M181.78,117.58C171.24,119.47,166,123.4,166,123.4s8.59,3.12,17.12,1.17a80.32,80.32,0,0,0,17.11-6.52A43.46,43.46,0,0,0,181.78,117.58Z" transform="translate(0 -110)"/><path class="cls-15" d="M184.54,110.2c-6.83,0-13.15,0-13.15,0a21.26,21.26,0,0,0,11.84,5.13,91.29,91.29,0,0,1,15.58,3.45S191.37,110.23,184.54,110.2Z" transform="translate(0 -110)"/><path class="cls-15" d="M213.79,110h-9.44a39.32,39.32,0,0,0-5.16,9.66S207.5,114.49,213.79,110Z" transform="translate(0 -110)"/><path class="cls-15" d="M216.39,114.09c-11.81.13-17.2,5.57-17.2,5.57s14-1.27,21.41-2.48a91.19,91.19,0,0,0,13-3.09S228.2,114,216.39,114.09Z" transform="translate(0 -110)"/><path class="cls-15" d="M184.39,123.53c-5,2.73-10.83,10.61-10.83,10.61a132.33,132.33,0,0,0,11.89-6c3.63-2.29,13.36-9.37,13.36-9.37C198.64,118.78,195.09,117.7,184.39,123.53Z" transform="translate(0 -110)"/><path class="cls-16" d="M198.56,118.88s5.33,8.34,9.55,11.32,15.51,3.4,15.51,3.4A98.37,98.37,0,0,0,212,125.87C206.12,122.65,198.56,118.88,198.56,118.88Z" transform="translate(0 -110)"/><path class="cls-15" d="M198.81,118.78l1.17.81a25.35,25.35,0,0,0-2.17-9.59h-5.16a9.24,9.24,0,0,0,.82,1.29C195.4,113.78,197.65,118,198.81,118.78Z" transform="translate(0 -110)"/><path class="cls-15" d="M208,125.1a63.33,63.33,0,0,0-9.18-6.32,30.13,30.13,0,0,0,7.49,9.9,55.87,55.87,0,0,0,12.23,7.23A143.07,143.07,0,0,0,208,125.1Z" transform="translate(0 -110)"/><polygon class="cls-23" points="77.13 110.94 98.2 98.73 98.2 37.58 77.13 49.78 77.13 110.94"/><path class="cls-24" d="M85.75,136.91c-8.4-5.38-14.26-4.86-14.26-4.86L50.42,144.29l26.71,15.49,21.07-12.2A64.28,64.28,0,0,0,85.75,136.91Z" transform="translate(0 -110)"/><path class="cls-25" d="M80.63,139.86c-8.4-5.39-14.26-4.87-14.26-4.87l-10,5.82s5.86-.52,14.26,4.87a64.8,64.8,0,0,1,12.45,10.66l10-5.82A64.43,64.43,0,0,0,80.63,139.86Z" transform="translate(0 -110)"/><path class="cls-26" d="M64.69,149.16c-8.41-5.39-14.27-4.87-14.27-4.87l-.08,61.17,26.79,15.47V159.82A64.55,64.55,0,0,0,64.69,149.16Z" transform="translate(0 -110)"/><polygon class="cls-27" points="83.06 107.49 93.08 101.69 93.08 40.52 83.06 46.33 83.06 107.49"/><path class="cls-28" d="M70.64,142.19c0,1,1.58,1.87,3.52,1.87s3.51-.83,3.51-1.87v-5.27h-7Z" transform="translate(0 -110)"/><path class="cls-27" d="M74.31,136.17c-7.66,0-13.87-3.3-13.87-7.37v4.94c0,4.07,6.21,7.38,13.87,7.38s13.87-3.31,13.87-7.38V128.8C88.18,132.87,82,136.17,74.31,136.17Z" transform="translate(0 -110)"/><path class="cls-25" d="M74.31,121.42c7.66,0,13.87,3.3,13.87,7.38V110H60.44v18.8C60.44,124.72,66.65,121.42,74.31,121.42Z" transform="translate(0 -110)"/><path class="cls-27" d="M88.11,124.59H85.7c-2.5-1.91-6.67-3.17-11.39-3.17s-8.89,1.26-11.39,3.17H60.47V128h0a4.77,4.77,0,0,0-.07.76c0,4.07,6.21,7.37,13.87,7.37s13.87-3.3,13.87-7.37a4.77,4.77,0,0,0-.07-.76Z" transform="translate(0 -110)"/><ellipse class="cls-29" cx="74.31" cy="14.14" rx="13.87" ry="7.38"/><path class="cls-30" d="M83.94,110H64.68a21.57,21.57,0,0,0,9.63,2.07A21.57,21.57,0,0,0,83.94,110Z" transform="translate(0 -110)"/><polygon class="cls-23" points="84.84 51.33 91.31 47.31 91.31 46.47 91.31 45.53 84.84 49.49 84.84 51.33"/><polygon class="cls-23" points="84.84 53.8 89.7 50.77 89.7 50.12 84.84 53.09 84.84 53.8"/><polygon class="cls-23" points="83.07 83.42 93.12 77.2 93.12 76.55 83.07 82.71 83.07 83.42"/><polygon class="cls-23" points="84.84 55.63 89.7 52.61 89.7 51.96 84.84 54.92 84.84 55.63"/><polygon class="cls-23" points="84.84 57.47 89.7 54.45 89.7 53.8 84.84 56.76 84.84 57.47"/><polygon class="cls-31" points="90.49 57.92 91.31 57.38 91.31 49.13 90.49 49.63 90.49 57.92"/><polygon class="cls-28" points="83.06 81.3 93.08 75.52 93.08 58.85 83.06 64.65 83.06 81.3"/><polygon class="cls-26" points="83.07 81.31 93.08 75.51 83.07 69.69 83.07 81.31"/><polygon class="cls-24" points="83.07 79.83 90.7 75.41 83.07 70.98 83.07 79.83"/><path class="cls-32" d="M88.88,166.45a1.84,1.84,0,0,0-.76,1.45c0,.56.34.82.76.58a1.83,1.83,0,0,0,.76-1.45C89.64,166.47,89.3,166.21,88.88,166.45Z" transform="translate(0 -110)"/><path class="cls-31" d="M86.45,167.84a1.83,1.83,0,0,0-.76,1.45c0,.56.34.82.76.58a1.83,1.83,0,0,0,.76-1.45C87.21,167.86,86.87,167.6,86.45,167.84Z" transform="translate(0 -110)"/><polygon class="cls-28" points="295.29 53.64 295.29 0 261.88 0 261.88 34.34 295.29 53.64"/><path class="cls-32" d="M282.38,112.37a9.49,9.49,0,0,0,1.31,4.06c1.06,1.61,2.57,2.55,3.74,2.48a20.8,20.8,0,0,0,2.3,4.82,6.44,6.44,0,0,0,4,2.84V110.31l-.53-.31H279.79A6.72,6.72,0,0,0,282.38,112.37Z" transform="translate(0 -110)"/><path class="cls-32" d="M270.83,110h-1.29A3.49,3.49,0,0,0,270.83,110Z" transform="translate(0 -110)"/><path class="cls-32" d="M291.21,138.72c-1,.19-1.25,1.44-1.27,2.9a10.22,10.22,0,0,0,.59,3.53c-1.82-1-3.6-.18-3.09,2.7-.82-1-1.77-1.57-2.59-1.38s-1.52,1.44-1.62,3c-2.76-3.43-6.71-4.18-7,.48v0l17.52,10.11V139.34A3.86,3.86,0,0,0,291.21,138.72Z" transform="translate(0 -110)"/><path class="cls-33" d="M266.68,128.07a3.69,3.69,0,0,1,.14,3.39,3.12,3.12,0,0,1,2.29,2.52,4.57,4.57,0,0,1-.54,3,4.51,4.51,0,0,1,3.58,1.74,5.49,5.49,0,0,1,.45,5.47,4.28,4.28,0,0,1,4.71,3c1.43-1.21,4-.14,5.92,2.28a5.82,5.82,0,0,1,.32-1.59,15.27,15.27,0,0,0-3.93-7.25,7.53,7.53,0,0,0-3.11-2,11.64,11.64,0,0,0-1.72-5.41,8.53,8.53,0,0,0-2.89-2.88,11.45,11.45,0,0,0-.42-3.74,11,11,0,0,0-2-3.78,6.77,6.77,0,0,0,.19-3.43,10.37,10.37,0,0,0-2.64-5.25,7.47,7.47,0,0,0,.72-4.12h-4v17A2.7,2.7,0,0,1,266.68,128.07Z" transform="translate(0 -110)"/><path class="cls-18" d="M272.6,144.2a5.49,5.49,0,0,0-.45-5.47,4.51,4.51,0,0,0-3.58-1.74,4.57,4.57,0,0,0,.54-3,3.12,3.12,0,0,0-2.29-2.52,3.69,3.69,0,0,0-.14-3.39,2.7,2.7,0,0,0-3-1.07v15.71l12.52,7.23v0a3.76,3.76,0,0,1,1.08-2.76A4.28,4.28,0,0,0,272.6,144.2Z" transform="translate(0 -110)"/><path class="cls-18" d="M287.63,135.22c-1,.1-1.69,1.27-1.76,2.76a3.22,3.22,0,0,0-1-.64,1.68,1.68,0,0,0-1.85.58,9.13,9.13,0,0,0-2-2.73c-1-.86-1.92-.79-2.52-.16a10.67,10.67,0,0,0-2.54-3.78c-1.2-1-2.05-.71-2.58.17a9,9,0,0,1,1.45,1.78,11.64,11.64,0,0,1,1.72,5.41,7.53,7.53,0,0,1,3.11,2,15.25,15.25,0,0,1,3.93,7.26,2,2,0,0,1,1.3-1.38c.82-.19,1.77.41,2.59,1.38-.51-2.88,1.27-3.73,3.09-2.7a10.22,10.22,0,0,1-.59-3.53c0-1.46.25-2.71,1.27-2.9a2.37,2.37,0,0,1,.6,0C290.82,136.76,288.74,135.12,287.63,135.22Z" transform="translate(0 -110)"/><path class="cls-18" d="M267,114.12a10.37,10.37,0,0,1,2.64,5.25,7.2,7.2,0,0,1,.11,1.12,2.43,2.43,0,0,0,1.73-.66,3.27,3.27,0,0,0,.87-2,2.23,2.23,0,0,0,2.7-.32,3.59,3.59,0,0,0,.67-2c1,.87,2.31,1.15,3,.59a7.62,7.62,0,0,0,1.12,2,3.87,3.87,0,0,0,2.79,1.63,6.32,6.32,0,0,0,1,2.64,3.63,3.63,0,0,0,2.81,1.82c.57,1.92,2.55,3.58,3.7,3.42.79-.12,1.33-.84,1.51-1.91a7.32,7.32,0,0,1-1.95-2,20.8,20.8,0,0,1-2.3-4.82c-1.17.07-2.68-.87-3.74-2.48a9.49,9.49,0,0,1-1.31-4.06,6.72,6.72,0,0,1-2.59-2.37h-9a3.51,3.51,0,0,1-1.21,0h-1.9A7.47,7.47,0,0,1,267,114.12Z" transform="translate(0 -110)"/><path class="cls-27" d="M283.66,122.37a6.32,6.32,0,0,1-1-2.64,3.87,3.87,0,0,1-2.79-1.63,7.62,7.62,0,0,1-1.12-2c-.7.56-2,.28-3-.59a3.59,3.59,0,0,1-.67,2,2.23,2.23,0,0,1-2.7.32,3.27,3.27,0,0,1-.87,2,2.43,2.43,0,0,1-1.73.66,6,6,0,0,1-.3,2.31,11,11,0,0,1,2,3.78,11.45,11.45,0,0,1,.42,3.74,6.42,6.42,0,0,1,1.44,1.1c.53-.88,1.38-1.17,2.58-.17a10.67,10.67,0,0,1,2.54,3.78c.6-.63,1.53-.7,2.52.16a9.13,9.13,0,0,1,2,2.73,1.73,1.73,0,0,1,1.31-.66,7.33,7.33,0,0,1-.24-3.84c.28-1.06.89-1.69,1.65-1.6-.52-2.16.37-3.93,1.85-4a9.91,9.91,0,0,1-1.18-3.68A3.66,3.66,0,0,1,283.66,122.37Z" transform="translate(0 -110)"/><path class="cls-33" d="M290.17,127.61c-1.15.16-3.13-1.5-3.7-3.42h-.09a9.91,9.91,0,0,0,1.18,3.68c-1.48,0-2.37,1.8-1.85,4-.76-.09-1.37.54-1.65,1.6a7.33,7.33,0,0,0,.24,3.84,1.68,1.68,0,0,1,.54.08,3.22,3.22,0,0,1,1,.64c.07-1.49.74-2.66,1.76-2.76s3.19,1.54,4.18,3.47a4.55,4.55,0,0,1,1.94.65V126.57a5.17,5.17,0,0,1-2.07-.87C291.5,126.77,291,127.49,290.17,127.61Z" transform="translate(0 -110)"/><path class="cls-23" d="M283.39,120.27c-.11.28-.15.61-.36.76s-.51.08-.79.06-.21.24,0,.45c.8,1,1.88.21,1.54-1.07C283.68,120.26,283.45,120.13,283.39,120.27Z" transform="translate(0 -110)"/><path class="cls-28" d="M282,116.81c-.53.08-1,1.51-.41,2.4.1.15.23.16.29.07.17-.27,0-.75,0-1.15a11.16,11.16,0,0,1,.18-1.2C282.05,116.87,282,116.8,282,116.81Z" transform="translate(0 -110)"/><path class="cls-28" d="M285.45,119.14a4.22,4.22,0,0,1,.07,1.31,3.05,3.05,0,0,1-.4.83.46.46,0,0,0,.23.55c.82.18,1-1.81.18-2.72C285.48,119.05,285.44,119.07,285.45,119.14Z" transform="translate(0 -110)"/><path class="cls-28" d="M285.47,123.37c-.22.14-.34.45-.57.57s-.59,0-.86.09-.14.41.06.62c.71.74,1.84,0,1.49-1.19C285.57,123.39,285.51,123.35,285.47,123.37Z" transform="translate(0 -110)"/><path class="cls-28" d="M279.4,118.73c-.08,0-.12.12,0,.23.25.43.54.83.75,1.28a7.19,7.19,0,0,1,.5,1.64c0,.06.07.12.09.07C281.08,121.11,280.32,119,279.4,118.73Z" transform="translate(0 -110)"/><path class="cls-28" d="M278,113.67c-.13,0-.08.22,0,.31a3.16,3.16,0,0,1,.92,2.6c0,.27.25.57.4.45.41-.32.33-1.25,0-2A2.44,2.44,0,0,0,278,113.67Z" transform="translate(0 -110)"/><path class="cls-23" d="M279.63,111.9c-.06-.05-.13,0-.07.11a4.26,4.26,0,0,1,.49,1.43c.06.45,0,.8,0,1.23,0,.22.19.5.34.45.43-.12.44-.86.27-1.53A3,3,0,0,0,279.63,111.9Z" transform="translate(0 -110)"/><path class="cls-23" d="M278.17,119.77a7,7,0,0,1-.5-1.51c0-.06-.06-.08-.07,0a3.61,3.61,0,0,0,1.11,3.16c.22.12.33-.18.18-.47S278.38,120.2,278.17,119.77Z" transform="translate(0 -110)"/><path class="cls-28" d="M285.18,126.73a2.52,2.52,0,0,1-.8-.38c-.24-.18-.46-.43-.7-.58s-.35.18-.18.48a3,3,0,0,0,1.84,1.39C285.74,127.75,285.57,126.83,285.18,126.73Z" transform="translate(0 -110)"/><path class="cls-23" d="M288.38,124.22c-.18.48-.27,1-.62,1.27s-.75.08-1.14.15c-.19,0-.13.43.06.63,1.12,1.17,2.43-.32,1.8-2C288.45,124.18,288.39,124.17,288.38,124.22Z" transform="translate(0 -110)"/><path class="cls-23" d="M286.76,128c-.1,0-.13.26,0,.42.37.45.79.66,1.17,1.06a8.47,8.47,0,0,1,1.19,1.74c0,.08.11.06.1,0a5,5,0,0,0-1-2.13C287.84,128.51,287.2,127.86,286.76,128Z" transform="translate(0 -110)"/><path class="cls-23" d="M286.21,130.88c-.41-.24-.78-.69-1.19-.94-.16-.1-.22.13-.12.33.58,1.28,2.18,1.91,2.66,1.21,0,0,0-.17-.08-.19A5.07,5.07,0,0,1,286.21,130.88Z" transform="translate(0 -110)"/><path class="cls-23" d="M283.06,134s0,0,0,.07c.26.56.6,1,.83,1.62a16.79,16.79,0,0,1,.47,1.68c0,.17.23.27.28.16a2.78,2.78,0,0,0-.28-2.05C284,134.82,283.56,134.1,283.06,134Z" transform="translate(0 -110)"/><path class="cls-23" d="M282.05,134.27a4.69,4.69,0,0,1,0,1.4,3.91,3.91,0,0,1-.43.92.39.39,0,0,0,.2.47c.92.23,1.07-1.74.31-2.83C282.08,134.17,282,134.21,282.05,134.27Z" transform="translate(0 -110)"/><path class="cls-23" d="M283.7,138.25c0-.2-.24-.31-.28-.16a5.45,5.45,0,0,0,.86,3.39c.21.36.52.14.31-.23A8.82,8.82,0,0,1,283.7,138.25Z" transform="translate(0 -110)"/><path class="cls-28" d="M285.69,140.34c-.25-.29-.47-.63-.74-.89-.1-.1-.2,0-.17.13a3.27,3.27,0,0,0,1.65,2.21c.23.06.27-.35.07-.62S286,140.64,285.69,140.34Z" transform="translate(0 -110)"/><path class="cls-23" d="M280.65,125.26a2.66,2.66,0,0,1,.06,1.44c-.1.32-.34.46-.5.69a.45.45,0,0,0,.17.5c1.07.51,1.27-1.45.53-2.68C280.8,125,280.6,125,280.65,125.26Z" transform="translate(0 -110)"/><path class="cls-28" d="M280.91,130.86a2.94,2.94,0,0,1,.15,1.1c0,.3-.2.41-.28.66a.53.53,0,0,0,.3.57c.77.15.68-1.74-.05-2.46C280.93,130.64,280.88,130.74,280.91,130.86Z" transform="translate(0 -110)"/><path class="cls-28" d="M279.62,132.8s-.08,0-.06.06a5.79,5.79,0,0,1,.42,1.62,7.68,7.68,0,0,1-.23,1.33c0,.25.22.49.36.48C281.09,136.23,280.62,133.56,279.62,132.8Z" transform="translate(0 -110)"/><path class="cls-28" d="M281.6,138.68s-.06,0-.05,0a13.62,13.62,0,0,1,.31,1.46,4,4,0,0,1-.26,1.21c0,.16.1.45.24.45C282.77,141.91,282.72,139.33,281.6,138.68Z" transform="translate(0 -110)"/><path class="cls-23" d="M284.1,143.88a6.61,6.61,0,0,1-.34,1.56s0,0,0,.05c.59.21,1-.56.66-1.47C284.37,143.79,284.13,143.67,284.1,143.88Z" transform="translate(0 -110)"/><path class="cls-23" d="M277.9,131.4a5.6,5.6,0,0,1,0,1.37c-.11.44-.41.51-.57.86a.61.61,0,0,0,.24.68c1,.47,1.37-1.81.5-2.93C278,131.3,277.9,131.31,277.9,131.4Z" transform="translate(0 -110)"/><path class="cls-23" d="M278.82,136.2c-.07,0-.16,0-.15.07.05.55.28,1.11.28,1.66s-.29.86-.28,1.39a.41.41,0,0,0,.25.39C279.93,140.09,279.78,137,278.82,136.2Z" transform="translate(0 -110)"/><path class="cls-28" d="M279.14,129a1.31,1.31,0,0,1-.38.62c-.24.15-.43,0-.73-.23s-.38,0-.25.29a1.07,1.07,0,0,0,1,.81c.43,0,.6-.58.68-1.13C279.49,129.17,279.23,128.83,279.14,129Z" transform="translate(0 -110)"/><path class="cls-23" d="M276.76,112.09c0-.07-.07-.13-.1-.1-.39.37-.27,1.66.2,2.38.14.21.32.1.28-.12-.07-.38-.23-.75-.3-1.13S276.8,112.44,276.76,112.09Z" transform="translate(0 -110)"/><path class="cls-28" d="M275,113.84c-.07,0-.07.2,0,.28a4.66,4.66,0,0,1,1.09,1.19,6.08,6.08,0,0,1,.52,1.72c0,.08.08.13.11.09C277.38,116.16,276,113.6,275,113.84Z" transform="translate(0 -110)"/><path class="cls-23" d="M274.16,116.26c0-.15-.18-.15-.18,0a4.49,4.49,0,0,0,1.72,3.44c.37.26.45-.52.08-.82A5,5,0,0,1,274.16,116.26Z" transform="translate(0 -110)"/><path class="cls-23" d="M279.31,126.3c-.66.32-1.32-.35-2-1.07-.14-.15-.29,0-.2.23.59,1.41,1.87,1.79,2.45,1.26C279.66,126.59,279.46,126.22,279.31,126.3Z" transform="translate(0 -110)"/><path class="cls-28" d="M278,124a4.89,4.89,0,0,1-.81-2.06c0-.14-.15-.18-.16-.07a4.49,4.49,0,0,0,.69,2.46c.42.66,1.07,1.33,1.57,1.27.14,0,.11-.37,0-.51A5.39,5.39,0,0,1,278,124Z" transform="translate(0 -110)"/><path class="cls-23" d="M274.93,125.75c.1.28.32.29.34.07a3.08,3.08,0,0,1,.2-1.23c.19-.32.49-.36.79-.45,0,0,0,0,0-.06C275.32,123.18,274.45,124.4,274.93,125.75Z" transform="translate(0 -110)"/><path class="cls-28" d="M275.87,127.59c.13.95.2,1.93-.48,2-.14,0-.14.33,0,.51,1.13,1.46,1.64-1.56.6-2.63C275.91,127.41,275.85,127.49,275.87,127.59Z" transform="translate(0 -110)"/><path class="cls-23" d="M273.54,127c-.46.3-.55,1.34-.44,2.19,0,.27.26.44.38.33.42-.39.21-2.48,1.17-1.67,0,0,.06,0,0-.06C274.46,127.08,273.89,126.8,273.54,127Z" transform="translate(0 -110)"/><path class="cls-23" d="M275.53,132.9c.12,1,0,1.7-.61,2-.1,0-.09.23,0,.36.44.47.86.33,1.07,0a4,4,0,0,0,.1-2.16C276,132.46,275.47,132.35,275.53,132.9Z" transform="translate(0 -110)"/><path class="cls-28" d="M272.43,116.84a10.83,10.83,0,0,1-.45-1.4c-.08-.24-.3-.31-.34-.14-.25.9.74,3,1.55,3.28.24.08.22-.33.06-.58A10.37,10.37,0,0,1,272.43,116.84Z" transform="translate(0 -110)"/><path class="cls-28" d="M274.54,120.69c-.45.43-1.1,0-1.7-.66-.13-.15-.24,0-.18.21.55,1.57,1.76,1.86,2.3,1.13C275.14,121.13,274.74,120.49,274.54,120.69Z" transform="translate(0 -110)"/><path class="cls-23" d="M272.38,111.62c0-.11-.1-.23-.16-.18-.45.35-.43,2.14.21,2.92.12.15.31.17.29,0a10.42,10.42,0,0,0-.3-1.29A13.32,13.32,0,0,1,272.38,111.62Z" transform="translate(0 -110)"/><path class="cls-23" d="M269,114c-.17-.1-.25.18-.09.39.31.4.63.75.93,1.15a10,10,0,0,0,.85,1.12c.21.2.4,0,.28-.33A4.87,4.87,0,0,0,269,114Z" transform="translate(0 -110)"/><path class="cls-23" d="M282.51,123.63a1.64,1.64,0,0,1-.93,0c-.31-.11-.62-.37-.93-.49s-.16.26,0,.43c.62,1,1.69,1,2.08.42C282.76,123.87,282.62,123.61,282.51,123.63Z" transform="translate(0 -110)"/><path class="cls-23" d="M282.9,128.1a17.2,17.2,0,0,1,.65,1.91c.08.24.35.39.38.15a4.71,4.71,0,0,0-.63-2.37C283.06,127.29,282.65,127.6,282.9,128.1Z" transform="translate(0 -110)"/><polygon class="cls-23" points="292.17 1.82 289.02 0 285.4 0 292.17 3.91 292.17 1.82"/><polygon class="cls-23" points="292.17 6.16 281.5 0 277.88 0 292.17 8.25 292.17 6.16"/><polygon class="cls-23" points="265.34 26.68 292.17 42.17 292.17 40.08 265.34 24.59 265.34 26.68"/><polygon class="cls-23" points="265.34 31.03 292.17 46.52 292.17 44.42 265.34 28.93 265.34 31.03"/><polygon class="cls-7" points="297.33 52.25 297.33 0 295.29 0 295.29 53.64 297.33 52.25"/><polygon class="cls-34" points="342.57 55.68 342.57 11.56 322.55 0 309.48 0 309.48 36.58 342.57 55.68"/><polygon class="cls-32" points="340.41 51.56 340.41 13.19 317.56 0 311.64 0 311.64 34.94 340.41 51.56"/><path class="cls-25" d="M331.3,137a11.45,11.45,0,0,1-2-1.48c-.95-1.05-.25-1.47.19-1.78a15.09,15.09,0,0,0,2.74-3.43,6.77,6.77,0,0,0,.7-3.16c-.13-1.74-1.64-2.69-2.44-2.26s-3.91,3.41-5,3.42a28.27,28.27,0,0,0-.31-3.14,2.57,2.57,0,0,0-.47-1.19c-.65-.82-1.31-.42-1.72,0-.49-1-2.83-9.09-4.27-8-.38.28-.47,1.11-.38,1.82.06.56.26,1.13.36,1.69.37,2-.49,2.07-1.61,1.38s-3.06-1.71-2.63.64c.23,1.23,1.64,2.83.94,3.73-.29.39-.88.51-1.27.72s-1,.33-1.12.7.34,1.18.66,1.49a1.69,1.69,0,0,0,.79.45c.3.09.55-.07.86,0a2,2,0,0,1,1.32,1.87c.3,2-1.85,3.95-.05,6.48,1.39,2,2.54,0,3.05-1a3,3,0,0,1,.86-1.2.63.63,0,0,1,1.06.19,5.74,5.74,0,0,1,.24,1.18,28.73,28.73,0,0,1,.25,5.34c0,.72-.45,6.6,1.34,6.09.77-.21.74-2,.84-2.93l.6-5.23a6.9,6.9,0,0,1,.69,3.59c0,.25.23.45.35.39,1.71-.82-.45-6.59,2.71-4.77,1,.59,5.85,2.85,5.56.66C333.9,138.1,332,137.48,331.3,137Z" transform="translate(0 -110)"/><path class="cls-18" d="M333.57,145.54c-.24-.2-.87-.78-1.1-1-.6-.65-1-.82.08-1.49.63-.39.05-1.44-.36-1.63-.77-.35-1.52-.59-1.71-1.1-.29-.83.59-2.08.74-2.47a7,7,0,0,0,.56-3.88.42.42,0,0,0-.17-.28c-.83-.35-1.05.75-1.35,1.46-.23.55-.46,1.75-.86,2s-.82,0-1.25-.39-2.1-3.74-2.69-4.59c-.26-.38-.66-.75-.92-.55s0,1,.17,1.54c.6,1.61,1.25,3.21,1.88,4.82-.72-.24-2.14-.78-1.7.64s1.82,1,1.44,2.95c-.08.44-.51.74-.68,1.11a5.87,5.87,0,0,0-.38,1c-.17.68-.28,2.06.59,2.62.6.39,1.29-.21,1.7-.47a5.77,5.77,0,0,0,1.3-1.18c.08,1.22-1,4.37-.16,5.63.45.68,1.3-2.49,1.5-3,.08-.2.1-.49.19-.69.28-.62.58-.73,1.2-.15,1.1,1,2.26,2.33,3.41,2.71.6.19.95.06.65-.92A6.49,6.49,0,0,0,333.57,145.54Z" transform="translate(0 -110)"/><path class="cls-18" d="M336.85,128.44c-.39-1.16,1.24-2,.23-3-.38-.38-.74-.34-1-.09s-.54,1.33-.65,1.47c-.3.33-.55-.64-1.24-2.3-.19-.46-1.06-2.46-1.28-1.45a5.93,5.93,0,0,0,.51,2.18,11.41,11.41,0,0,1,.88,2.4c0,1-2.23-1-1.94.4a2.6,2.6,0,0,0,2.44,2c.17,1.67.19,4.7.77,5.39.35.42.48-1.82.55-3.67,0-.84-.2-1.9.05-2s.52.45.85.68c.75.53,1.94,1.52,2.08.88C339.38,130.12,337.19,129.43,336.85,128.44Z" transform="translate(0 -110)"/><polygon class="cls-35" points="343.74 10.78 325.07 0 322.55 0 342.57 11.56 343.74 10.78"/><polygon class="cls-7" points="342.57 55.68 343.74 54.91 343.74 10.78 342.57 11.56 342.57 55.68"/><path class="cls-17" d="M36.89,221.54c-5.18,0-9.38,2.37-9.38,5.28s4.2,5.28,9.38,5.28,9.38-2.36,9.38-5.28S42.07,221.54,36.89,221.54Z" transform="translate(0 -110)"/><path class="cls-18" d="M36.87,214.94l-11.79-3.4a21.92,21.92,0,0,0,0,10,11.73,11.73,0,0,0,2.06,4.33c1.38,2.24,5.15,3.85,9.6,3.85a17,17,0,0,0,4.48-.59,1.1,1.1,0,0,0,.31,0c3-.91,5.8-2.59,7.14-7.55a21.92,21.92,0,0,0,0-10Z" transform="translate(0 -110)"/><path class="cls-19" d="M36.89,204.89c-6.52,0-11.81,3-11.81,6.65s5.29,6.64,11.81,6.64,11.8-3,11.8-6.64S43.41,204.89,36.89,204.89Z" transform="translate(0 -110)"/><path class="cls-18" d="M36.89,205.9c-5.53,0-10,2.53-10,5.64a3,3,0,0,0,.09.72c.63-2.77,4.83-4.91,9.92-4.91s9.29,2.14,9.92,4.91a3,3,0,0,0,.09-.72C46.9,208.43,42.42,205.9,36.89,205.9Z" transform="translate(0 -110)"/><path class="cls-20" d="M36.89,207.35c-5.09,0-9.29,2.14-9.92,4.91.63,2.77,4.83,4.91,9.92,4.91s9.29-2.14,9.92-4.91C46.18,209.49,42,207.35,36.89,207.35Z" transform="translate(0 -110)"/><path class="cls-21" d="M43.43,173.54c-1.8,1-4.83,3.32-5.48,3.11-.94-.3-3.55-3.5-4.34-4.75s-3.27-7.78-3.27-7.85-1.13-.26-.79.86c0,.15.15.42.29.76.14,0,.26,0,.32,0,.61.79,3.16,6.55,3.69,7.68s3,3.83,3.76,5.41-.51,4-1.28,6.89-1.88,5.42-3.29,4.74-3.61-4.4-4.46-6.55-1.69-4.74-2.2-5.8-2.09-2.78-2.71-4.41c0-.12-.07-.22-.1-.33h0l0-.17a4,4,0,0,1-.11-.79,22.74,22.74,0,0,1-.06-3.53c.11-.82,1.15-5.87,1.15-5.87s-1.6,0-1.94,1.09-.79,7-1,7.22-2.48.08-3.38,0-2.37-1.63-2.37-1.63l-.57.69s1.49,2.29,2.94,2c3-.52,6.87,4.24,7.8,6.39s1.8,5.83,2.81,8c.36.78,1.69,2.2,2.79,4.23s1.7,2.67,1.85,4.17c.1,1,0,3.55.11,4.78.14,2,.87,11.6.87,11.6,1.47,2.31,4.09.56,4.23.16s-2-9.7-2.28-11a31.25,31.25,0,0,1-.57-5.89,7.2,7.2,0,0,1,1.66-4.39c1.15-1.1,4.66-2.1,5.56-2.33.45-.11.84-1.08,1.15-2.12a15,15,0,0,1-2.74,1.61c-1.69.79-4.5,1.7-4.5,1.7l.34-1a30.15,30.15,0,0,0,1.46-3.78c.4-1.32.7-4.4,1-5.72s2.66-2.27,5.6-4.2,4-7,4-7l-2.36-.71S45.24,172.59,43.43,173.54Z" transform="translate(0 -110)"/><path class="cls-21" d="M51.74,176.54a17.89,17.89,0,0,0-4.07,4.38c.65-.3,3.54-3.26,6.08-5.44a24.33,24.33,0,0,1,3.69-2.59,3.43,3.43,0,0,0-.47-1C55.78,173,53,175.49,51.74,176.54Z" transform="translate(0 -110)"/><path class="cls-20" d="M56.76,171.85c-2.89,1.49-8.25,7.4-10.49,7.91s-2.08,4.88-3,6.07-6.06,2.37-6.06,2.37l-.34,1s2.81-.91,4.5-1.7a15,15,0,0,0,2.74-1.61c.31-1.06.54-2.19.66-2.56a5.71,5.71,0,0,1,2.82-2.43l.06,0a17.89,17.89,0,0,1,4.07-4.38c1.22-1,4-3.5,5.23-4.61C56.9,171.86,56.83,171.82,56.76,171.85Z" transform="translate(0 -110)"/><path class="cls-20" d="M33.85,173.38c-.53-1.13-3.08-6.89-3.69-7.68-.06-.08-.18-.07-.32,0,.9,2.18,3.5,7.65,4.22,8.83,1.44,2.37,3.21,4.63,2.89,6.1-.47,2.14-2.31,8.73-3.1,9-1.22.41-2.65-2.19-3.43-3.23a70.48,70.48,0,0,1-2.91-7.11c-.46-1.35-3.7-5.39-3.94-5.92,0,.11.06.21.1.33.62,1.63,2.2,3.34,2.71,4.41s1.35,3.66,2.2,5.8,3.05,5.87,4.46,6.55,2.51-1.86,3.29-4.74,2-5.31,1.28-6.89S34.38,174.5,33.85,173.38Z" transform="translate(0 -110)"/><path class="cls-22" d="M26.65,149.58a2.58,2.58,0,0,0-3.88.89,1.54,1.54,0,0,0-1.36-.7c-.9,0-1.34.79-1.57,1.59-.52-.91-1.36-1.82-2.37-1.34-.82.39-.76,1.17-.48,1.88-.88-.37-1.89-.53-2.51.34s.07,2,.73,2.83c-1.22,2.3-1,6.22,1.25,7.46,3.62,2,6.74-2.21,8.05-5,.51-1.07.95-2.19,1.55-3.21.43-.74,1.42-1.54,1.65-2.36A2.3,2.3,0,0,0,26.65,149.58Z" transform="translate(0 -110)"/><path class="cls-22" d="M64,152.45c-.53-.21-1.91.31-1.91.31a4.22,4.22,0,0,0-.39-1.46,1.52,1.52,0,0,0-2-.3c-.21-1.72-2.18-2.73-3.11-1.23-.49-1-1.39-1.81-2.55-1.22-.93.48-.94,1.43-.74,2.32-1.5,1.08-2.1,3.89-1,5.31s2.87.79,4.25.79a24.94,24.94,0,0,1,4.22.34c.52.08,1.38.43,1.94.21C64.41,156.88,66.49,153.42,64,152.45Z" transform="translate(0 -110)"/><path class="cls-22" d="M47.92,163.38c-2.84-1.9-7-3.5-10.31-1.71A5.19,5.19,0,0,0,35,167.33s0,0-.07,0c-3.08,3.06,1.28,7.14,4.38,4.82.13,1.27.53,2.62,1.86,3a2,2,0,0,0,2-.5c.6,1.13,1.43,2.23,2.81,2.2a2,2,0,0,0,2-1.38c2.49.91,4.88-.75,5.33-3.45C53.85,168.45,50.63,165.2,47.92,163.38Z" transform="translate(0 -110)"/><path class="cls-15" d="M69.74,161.07c-.44-1.23-2.71-1.12-4.15-1,.85-1.34,1.56-3.21.09-4.35-1-.77-2.64-.46-4.18.13a2.62,2.62,0,0,0-1-2.59c-.6-.27-1.29.31-1.65.75a2.32,2.32,0,0,0-.54,1.24,6.1,6.1,0,0,0-3.8-.21c.4-1.37.64-3-.35-4.12-1.54-1.7-4.73-2.78-7.15-1.53a5.87,5.87,0,0,0-3.33-3.11,3,3,0,0,0-3.21,1.05c-1.41-2.24-4.29-4.51-6.89-4.19a3.31,3.31,0,0,0-2.76,2.14c-2.21-.64-4.18-.92-6,.71-1.17,1.06-1.35,3.83-.44,5.25a6.37,6.37,0,0,0-2.29,1c-1.12.83-.95,2.54-.29,3.66a2.44,2.44,0,0,0-1.55.65,1.27,1.27,0,0,0-.4,1.2q-.69.12-1.38.3c0-1.63-.72-3.32-2.5-3.68a2.77,2.77,0,0,0-3.06,1.54c-.77-1.09-1.83-2.06-3.22-1.61a2.16,2.16,0,0,0-1.27,1,4.68,4.68,0,0,0,1.24,3,20,20,0,0,0-2.21,2.52c-1.36,2.14.63,5.91,4.11,5.32a2.9,2.9,0,0,0,3.06,3.37A3.32,3.32,0,0,0,18,167.28a2.53,2.53,0,0,0,4.21-1.08,3.52,3.52,0,0,0,5-2.77c1.67,1.12,4.58,1,5.64-1,2.59,1,3.76-.69,4.23-2.37,1.38.87,4.44.56,5.49-.54,0,2.08,2.43,3.72,5.1,2.73-.4,1.29,2,3.13,4.07,2,.39,2.25,3.44,2.25,4.17,1.44a2.75,2.75,0,0,0,4.3,0,1.25,1.25,0,0,0,2,.24c3.61,4.45,7.94,1.63,8.89-2.48a3,3,0,0,0-1.76-.78A2,2,0,0,0,69.74,161.07Z" transform="translate(0 -110)"/><path class="cls-16" d="M71.06,166.11c.23-.35,1-1.77.09-2.71-1,4.11-5.28,6.93-8.89,2.48a1.25,1.25,0,0,1-2-.24,2.75,2.75,0,0,1-4.3,0c-.73.81-3.78.81-4.17-1.44-2,1.14-4.47-.7-4.07-2-2.67,1-5.1-.65-5.1-2.73-1,1.1-4.11,1.41-5.49.54-.47,1.68-1.64,3.41-4.23,2.37-1.06,2-4,2.16-5.64,1a3.52,3.52,0,0,1-5,2.77A2.53,2.53,0,0,1,18,167.28a3.32,3.32,0,0,1-3.36,2.22,2.9,2.9,0,0,1-3.06-3.37c-3.48.59-5.47-3.18-4.11-5.32a20,20,0,0,1,2.21-2.52,4.68,4.68,0,0,1-1.24-3,1.87,1.87,0,0,0-.2.51,2.65,2.65,0,0,0-3.12,1.09c-.92,1.39-.63,3,0,4.44-.78,0-1.82.06-2.24.88-.52,1,1.78,1.53,2.73,2a2,2,0,0,0,.74,3.78c-.85,1.06-1.45,2.39-.62,3.65a1.94,1.94,0,0,0,2.78.55,2.73,2.73,0,0,0,4.27,2.7c1.89,2.23,4.35,0,5.59-2.05a4.07,4.07,0,0,0,6.82.3c1.25.69,3.18,1.39,4-.13a3,3,0,0,0-.51-3.65c1.17.22,1.44-.6,1.82-1.88a2.65,2.65,0,0,0,.1-.67,3.93,3.93,0,0,0,1.43.45c1.41.15,2.84-.19,3.21-1.47,1,.07,2.49.13,3.32-1.09a2.92,2.92,0,0,0,.24-2.77,4.51,4.51,0,0,0,3.07-1,3.29,3.29,0,0,0,2.14,4.5,3.38,3.38,0,0,0,.64,3.94c.89.85,4.12,2.79,5.23,1.48a1.4,1.4,0,0,0,1.38,1,1.77,1.77,0,0,0,1.12-.62c.51.66,2.45.86,3.59.41A4.15,4.15,0,0,0,57,175a3.83,3.83,0,0,0,2.29,1.06,4.87,4.87,0,0,0-.35,4.33,3,3,0,0,0,2.87,1.45c1.82-.15,4.63-2.49,4.16-4.52,2.71,0,5.85-1.17,6.43-4.13a4.67,4.67,0,0,0-.88-3.3C73.15,169.5,74.22,166.87,71.06,166.11Z" transform="translate(0 -110)"/><path class="cls-15" d="M56.16,182.63c-.66-1.26-2.12-1.15-3.48-1.3a1.72,1.72,0,0,0,0-1.78c-.87-.91-2.48-.23-3.29.32.08-1-1.36-1.67-2.5-.9-.59-1.7-3.43-.85-2.78,1.32a1.28,1.28,0,0,0-.89,2.21,1.72,1.72,0,0,0-.25,2.92,2,2,0,0,0-.84,2.32c.61,1.54,2.14,1.6,3.6,1.52a3.11,3.11,0,0,0,3,2.7c2.09,0,3.69-1.28,3.3-2.77a3.35,3.35,0,0,0,4-1.28,2.13,2.13,0,0,0-.52-2.85A1.71,1.71,0,0,0,56.16,182.63Z" transform="translate(0 -110)"/><path class="cls-14" d="M7,157.33a.07.07,0,0,0,0-.08c-.87-.14-1.14,1.53-.4,1.86a.16.16,0,0,0,.24-.14,3.61,3.61,0,0,1-.1-.86A6.67,6.67,0,0,1,7,157.33Z" transform="translate(0 -110)"/><path class="cls-14" d="M29.13,147.24s0-.07-.05-.07c-.87-.14-1.14,1.53-.4,1.86.1,0,.25,0,.24-.14a3.63,3.63,0,0,1-.1-.87C28.87,147.74,29.06,147.52,29.13,147.24Z" transform="translate(0 -110)"/><path class="cls-14" d="M10.82,159.77a.11.11,0,0,0-.16.13,6,6,0,0,1,.22.83,1.39,1.39,0,0,0,.12.61.18.18,0,0,0,.27,0C11.7,160.91,11.32,160,10.82,159.77Z" transform="translate(0 -110)"/><path class="cls-14" d="M54.94,167.56a.11.11,0,0,0-.16.13,4.84,4.84,0,0,1,.22.83,1.39,1.39,0,0,0,.13.61.17.17,0,0,0,.26,0C55.82,168.7,55.44,167.83,54.94,167.56Z" transform="translate(0 -110)"/><path class="cls-14" d="M45.62,164.82a.12.12,0,0,0-.17.13,4.87,4.87,0,0,1,.23.83,1.26,1.26,0,0,0,.12.61.17.17,0,0,0,.26,0C46.49,166,46.11,165.09,45.62,164.82Z" transform="translate(0 -110)"/><path class="cls-14" d="M34.68,147.54a.12.12,0,0,0-.17.13,4.87,4.87,0,0,1,.23.83,1.26,1.26,0,0,0,.12.61.18.18,0,0,0,.27,0C35.55,148.68,35.17,147.81,34.68,147.54Z" transform="translate(0 -110)"/><path class="cls-14" d="M9.54,162.16a.68.68,0,0,0-.3,1.25.13.13,0,0,0,.2-.11,5.27,5.27,0,0,1,.23-1A.14.14,0,0,0,9.54,162.16Z" transform="translate(0 -110)"/><path class="cls-14" d="M43.18,157.85a.68.68,0,0,0-.3,1.25.13.13,0,0,0,.2-.11,5.27,5.27,0,0,1,.23-1A.14.14,0,0,0,43.18,157.85Z" transform="translate(0 -110)"/><path class="cls-14" d="M15.72,165.39a1.32,1.32,0,0,0-.05,1.13.24.24,0,0,0,.25.1l.1,0a.37.37,0,0,0,.25-.25c.06-.28.05-.74-.24-.92C16,165.37,15.78,165.29,15.72,165.39Z" transform="translate(0 -110)"/><path class="cls-14" d="M8.9,168.31a.83.83,0,0,0-.51,1c0,.1.19.18.28.07a2.09,2.09,0,0,0,.39-1A.11.11,0,0,0,8.9,168.31Z" transform="translate(0 -110)"/><path class="cls-14" d="M62.83,177a.83.83,0,0,0-.51,1,.17.17,0,0,0,.28.07,2,2,0,0,0,.39-1A.11.11,0,0,0,62.83,177Z" transform="translate(0 -110)"/><path class="cls-14" d="M47.11,181.27a.83.83,0,0,0-.52,1,.18.18,0,0,0,.29.07,2.18,2.18,0,0,0,.38-1A.1.1,0,0,0,47.11,181.27Z" transform="translate(0 -110)"/><path class="cls-14" d="M16.4,160.89c-.13,0-.16.18-.11.28a.67.67,0,0,0,.86.41.19.19,0,0,0,.13-.23A.7.7,0,0,0,16.4,160.89Z" transform="translate(0 -110)"/><path class="cls-14" d="M23.3,161.87a.73.73,0,0,0-.25,1,.15.15,0,0,0,.25,0,1.7,1.7,0,0,0,.26-.86A.16.16,0,0,0,23.3,161.87Z" transform="translate(0 -110)"/><path class="cls-14" d="M50.07,187.88a.71.71,0,0,0-.26,1,.15.15,0,0,0,.25,0,1.7,1.7,0,0,0,.26-.85A.15.15,0,0,0,50.07,187.88Z" transform="translate(0 -110)"/><path class="cls-14" d="M57.81,158.61a.72.72,0,0,0-.26,1,.15.15,0,0,0,.26,0,1.7,1.7,0,0,0,.26-.85A.16.16,0,0,0,57.81,158.61Z" transform="translate(0 -110)"/><path class="cls-14" d="M21.23,170c-.06,0-.07.07-.05.12.17.38.52.84,1,.84a.22.22,0,0,0,.2-.21C22.41,170.2,21.71,169.9,21.23,170Z" transform="translate(0 -110)"/><path class="cls-14" d="M60.81,160.74a.11.11,0,0,0-.16.13,5.62,5.62,0,0,1,.22.83,1.39,1.39,0,0,0,.13.61.17.17,0,0,0,.26,0C61.69,161.88,61.31,161,60.81,160.74Z" transform="translate(0 -110)"/><path class="cls-14" d="M50.53,181.86a.11.11,0,0,0-.17.12,5,5,0,0,1,.23.84,1.26,1.26,0,0,0,.12.61.18.18,0,0,0,.27,0C51.4,183,51,182.13,50.53,181.86Z" transform="translate(0 -110)"/><path class="cls-14" d="M59.53,163.13a.68.68,0,0,0-.3,1.25.13.13,0,0,0,.2-.11,5.27,5.27,0,0,1,.23-1A.13.13,0,0,0,59.53,163.13Z" transform="translate(0 -110)"/><path class="cls-14" d="M65.71,166.36a1.3,1.3,0,0,0,0,1.12.2.2,0,0,0,.24.1l.1,0a.37.37,0,0,0,.25-.25c.06-.28.06-.74-.24-.92C66,166.34,65.77,166.25,65.71,166.36Z" transform="translate(0 -110)"/><path class="cls-14" d="M59.87,171.26a.82.82,0,0,0-.51,1,.17.17,0,0,0,.28.08,2.31,2.31,0,0,0,.39-1A.11.11,0,0,0,59.87,171.26Z" transform="translate(0 -110)"/><path class="cls-14" d="M66.39,161.85a.19.19,0,0,0-.11.28.69.69,0,0,0,.87.42.2.2,0,0,0,.13-.23A.71.71,0,0,0,66.39,161.85Z" transform="translate(0 -110)"/><path class="cls-14" d="M66.5,170.48a.09.09,0,0,0,0,.12c.17.38.51.85,1,.84a.22.22,0,0,0,.21-.2C67.68,170.68,67,170.37,66.5,170.48Z" transform="translate(0 -110)"/><path class="cls-14" d="M47.13,156.49c-.05,0-.06.07,0,.12.17.38.51.84,1,.84a.23.23,0,0,0,.21-.21C48.31,156.68,47.61,156.38,47.13,156.49Z" transform="translate(0 -110)"/><path class="cls-14" d="M46.73,184.55a.08.08,0,0,0,0,.12c.17.38.51.84,1,.84a.22.22,0,0,0,.2-.21C47.91,184.74,47.21,184.44,46.73,184.55Z" transform="translate(0 -110)"/><path class="cls-14" d="M25,167.13a.73.73,0,0,0-.3.81.17.17,0,0,0,.25.1.72.72,0,0,0,.32-.8A.16.16,0,0,0,25,167.13Z" transform="translate(0 -110)"/><path class="cls-14" d="M11.78,170.52a.72.72,0,0,0-.3.81.17.17,0,0,0,.25.1.71.71,0,0,0,.31-.8A.16.16,0,0,0,11.78,170.52Z" transform="translate(0 -110)"/><path class="cls-14" d="M26.32,152.63a.11.11,0,0,0,0,.19,5.23,5.23,0,0,0,1.15.34.24.24,0,0,0,.23-.39A1,1,0,0,0,26.32,152.63Z" transform="translate(0 -110)"/><path class="cls-14" d="M34.21,160.46c-.05,0-.08.15,0,.18a4.71,4.71,0,0,0,1.16.35.23.23,0,0,0,.22-.39A1,1,0,0,0,34.21,160.46Z" transform="translate(0 -110)"/><path class="cls-14" d="M49.31,166.28a.11.11,0,0,0,0,.19,4.29,4.29,0,0,0,1.16.34.23.23,0,0,0,.22-.38A1,1,0,0,0,49.31,166.28Z" transform="translate(0 -110)"/><path class="cls-14" d="M50.78,185.71c-.06,0-.08.15,0,.18a4.71,4.71,0,0,0,1.16.35.24.24,0,0,0,.22-.39A1,1,0,0,0,50.78,185.71Z" transform="translate(0 -110)"/><path class="cls-14" d="M31.41,156c-.65.16-1.21,1.06-.67,1.62a.23.23,0,0,0,.35,0c.24-.41.24-.92.48-1.36A.14.14,0,0,0,31.41,156Z" transform="translate(0 -110)"/><path class="cls-14" d="M52.1,161.32c-.65.16-1.21,1.07-.67,1.62a.23.23,0,0,0,.35-.05c.24-.41.24-.92.48-1.36A.15.15,0,0,0,52.1,161.32Z" transform="translate(0 -110)"/><path class="cls-14" d="M42.39,153.66c-.64.15-1.21,1.06-.67,1.61a.23.23,0,0,0,.35,0c.24-.41.25-.93.48-1.37A.14.14,0,0,0,42.39,153.66Z" transform="translate(0 -110)"/><path class="cls-14" d="M25.91,155.72a.2.2,0,0,0-.05.36,2.39,2.39,0,0,0,1.18.41c.14,0,.2-.15.15-.26A1,1,0,0,0,25.91,155.72Z" transform="translate(0 -110)"/><path class="cls-14" d="M50.18,158.14a.2.2,0,0,0,0,.36,2.46,2.46,0,0,0,1.18.41.17.17,0,0,0,.15-.26A1,1,0,0,0,50.18,158.14Z" transform="translate(0 -110)"/><path class="cls-14" d="M30.1,161.87c-.29.32-.43.75-.09,1.07a.2.2,0,0,0,.31,0,1.14,1.14,0,0,0,.06-1A.17.17,0,0,0,30.1,161.87Z" transform="translate(0 -110)"/><path class="cls-14" d="M48,151.89c-.29.32-.44.75-.09,1.07a.19.19,0,0,0,.31,0,1.11,1.11,0,0,0,0-1A.16.16,0,0,0,48,151.89Z" transform="translate(0 -110)"/><path class="cls-14" d="M35.6,153.11c-.29.32-.43.76-.08,1.08a.2.2,0,0,0,.3,0,1.13,1.13,0,0,0,.06-1A.17.17,0,0,0,35.6,153.11Z" transform="translate(0 -110)"/><path class="cls-36" d="M68.62,258.92s-8.24.19-8,2a59.8,59.8,0,0,1-1.26,15,11.38,11.38,0,0,1-.39,1.42A35.35,35.35,0,0,0,56.12,280l-.79.83c.79,2.31,1.57,4.62,2.32,6.94,3.55-3.15,7.29-6.52,9.33-8.74s2-3.59,1.86-7.38C68.68,268.23,68.62,258.92,68.62,258.92Z" transform="translate(0 -110)"/><path class="cls-37" d="M46.83,290.22c-2.57,2.18-4.06,2.93-3.72,4.33s.19,1.85.08,5,3.3,4.83,3.78,3.15.75-5.61,5-9.83c1.24-1.24,3.88-3.55,6.8-6.14-.73-2.27-1.49-4.53-2.26-6.78C52.86,283.84,48.51,288.8,46.83,290.22Z" transform="translate(0 -110)"/><path class="cls-38" d="M44,297.21c-.4-3.41,2.81-7,2.81-7a4.93,4.93,0,0,0-1.74.27h0a1.14,1.14,0,0,0-.2.09l0,0a6.76,6.76,0,0,0-2.49,2.66,18,18,0,0,1-2.49,2.91c0,.45.17.82.66.74.72-.57,1.3-1.14,2.3-1.92h0c0,.21,0,.41,0,.64a34.67,34.67,0,0,1-1,5.22,6.89,6.89,0,0,0,1.39,5c1.67,2.17,3,2.07,3.11.69a31.8,31.8,0,0,1,.61-3.88C45.16,302.28,44.47,301,44,297.21Z" transform="translate(0 -110)"/><path class="cls-39" d="M67.9,243.4,56,248.22,58.19,272s-2.73,4.54-4.7,7.39-7.62,10.91-7.62,10.91a6.5,6.5,0,0,0,.37,4.55c1.46,2.65,3.12,2.25,3.32,2.11,1.43-1.06,9.83-8.62,12.9-12.43s5.41-6.59,6.45-8.72.56-6.27,0-12.9S67.9,243.4,67.9,243.4Z" transform="translate(0 -110)"/><path class="cls-37" d="M62.26,306.61A123.51,123.51,0,0,1,61,287.9c.55-7,.33-9.47-.79-14.5-.74-3.33-1.84-11.34-1.84-11.34s-10.56,2.69-9.72,4.26a60.18,60.18,0,0,1,4.21,14.46c.65,3.94-1,4.34.61,12.09,1.17,5.46,3.24,13.31,3.52,15.9.35,3.36-.15,4.52,1.2,5s2.12,2,4.64,3.82,5.13.09,4-1.25A18.7,18.7,0,0,1,62.26,306.61Z" transform="translate(0 -110)"/><path class="cls-38" d="M66.87,316.36c-1.42,1.19-2.84.95-6.1-1.05-2.93-1.8-3.75-6.54-3.75-6.54a5.1,5.1,0,0,0-.87,1.54h0a1.71,1.71,0,0,0-.06.22v0a6.79,6.79,0,0,0,.54,3.6,17.64,17.64,0,0,1,.74,3.76c.34.3.76.38,1-.06,0-.92-.08-1.72-.08-3h0l.51.4a35.8,35.8,0,0,1,3.5,4,6.87,6.87,0,0,0,4.79,2c2.74,0,3.45-1.05,2.46-2A30.87,30.87,0,0,1,66.87,316.36Z" transform="translate(0 -110)"/><path class="cls-40" d="M54.38,245.46c-4.28.25-7.41,4.38-7.41,4.38s-1.06,1.31-1.54,7.4,5,18.25,6.4,22.11c.57,1.62-.06,4.69-.43,8.41s3.93,23.3,3.93,23.3,2.33,2.7,4.83,2.24a8.53,8.53,0,0,0,3.57-1.77,80.83,80.83,0,0,1-1.61-15.21c-.13-8.82-.8-14.75-1-17.64s.55-17.75.55-17.75,1.71-.64,2-4.42a31.79,31.79,0,0,0-1.18-10.69A42.33,42.33,0,0,0,54.38,245.46Z" transform="translate(0 -110)"/><path class="cls-41" d="M64.91,211.79c-2.66-3.72-5.06-2.21-7.3-.92-6.29,3.63,6.27,12.27,6.27,12.27s.43,3.34,4.4,7.54c3.55,6.42,6.07,8.62,6.07,8.62l4.23-1.63s-3-6.42-5.31-10.55C71.32,223.64,67.8,215.82,64.91,211.79Z" transform="translate(0 -110)"/><path class="cls-23" d="M59.3,209.8c-.73.13-1.24.26-1.24.26s-.61,3.19-.21,4.28a27.53,27.53,0,0,1,1.54,7.12h0a31.94,31.94,0,0,0-3.45-3.64c-1.28-1-4.91-3.9-4.91-3.9s-5,2.3-5.58,4.42c-1.76,7,4.46,13.91,4.46,13.91C50,235,48.7,245.6,48.21,248.47c3.54,4.27,16.32,3.23,18.72-2.56a100.17,100.17,0,0,1-.94-10,47.47,47.47,0,0,1,1.24-10.21c1-4.25-2.33-8.76-3.47-10.06S60.41,211,59.3,209.8Z" transform="translate(0 -110)"/><path class="cls-42" d="M68.75,229.79c0-4,1.21-6.43-1.61-10.67-1.13-1.7-7.84-9.32-7.84-9.32l-1.53,3.09a26.28,26.28,0,0,1,5.92,9.22c2,5.53,1.53,30.8,1.53,30.8s4-.36,5-3c-.42-4.61-.42-4.61-1-8.55A78.1,78.1,0,0,1,68.75,229.79Z" transform="translate(0 -110)"/><path class="cls-43" d="M58.44,210.55s-4.3-6.37-6.61-5.33a23,23,0,0,1,.6,7.75,10.91,10.91,0,0,0,2.58,4.6,18.35,18.35,0,0,0,4.88,3.57,7.7,7.7,0,0,0-.85-5A22.55,22.55,0,0,1,58.44,210.55Z" transform="translate(0 -110)"/><path class="cls-42" d="M52.43,213s-6.36,1.29-8.21,6.15c1.6,3.31,4,12.73,4,16.77,0,3.5-2.26,15.26-2.26,15.26s1.06,2.29,5,3.54c2.53.8,7.85,0,7.85,0s.2-6,.54-10.69a53.2,53.2,0,0,0-1.42-16.8C56.48,221,52.43,213,52.43,213Z" transform="translate(0 -110)"/><path class="cls-44" d="M82.5,231.1c-.16-.11-.43-.09-.82.08l-8.22,4.76a6.55,6.55,0,0,0-2.63,2.39L62,253.69c-.31.53-.32.89-.12,1h0l.88.5.41-.86,7.75-4.49a6.65,6.65,0,0,0,2.64-2.39l8.87-15.37,0-.11.2.2.7-.63-.83-.49Z" transform="translate(0 -110)"/><path class="cls-45" d="M82.54,231.67l-8.22,4.76a6.58,6.58,0,0,0-2.64,2.39l-8.87,15.36c-.53.92-.21,1.35.71.95l8.22-4.76A6.63,6.63,0,0,0,74.37,248l8.87-15.37C83.77,231.69,83.45,231.27,82.54,231.67Z" transform="translate(0 -110)"/><path class="cls-46" d="M68.45,244.17c-.74-.49.14-1.85.32-2.27-1.45-.22-3.3.84-4.75.56-.82-.15-6-1.18-7.41-1.93-.76,1.41-1.54,3.49-2.23,4.93,1.67.56,7.06-.18,8.17.36,2.86,1.37,4.56,3.63,7.41,2.24,1.6-.77,3.31-2.68,3.31-3.89C73.27,241.92,69.83,245.09,68.45,244.17Z" transform="translate(0 -110)"/><path class="cls-46" d="M79.77,238.89c-1.3-.28-4.46,3.22-4.17,4.57s3.17.46,3.94-.76S80.88,239.12,79.77,238.89Z" transform="translate(0 -110)"/><path class="cls-41" d="M48.08,237.44s2.83-9.14,2.83-12.63c0-4.64-2.42-9.19-3.32-9.74a8.5,8.5,0,0,0-4.17,3.43c-1.76,2.69-4,17.16-3.56,20.37s1.22,5,7.11,6.37S63.39,247,63.39,247s2-2.48.93-5.06C61.23,241.2,48.08,237.44,48.08,237.44Z" transform="translate(0 -110)"/><path class="cls-39" d="M62.93,200.15l-6,13.23a7.14,7.14,0,0,0,5.59-1.61c2.67-2.21,2.67-5,2.3-7.83S62.93,200.15,62.93,200.15Z" transform="translate(0 -110)"/><path class="cls-37" d="M52.78,197.78c-1.67,1.55-2.8,5.91-1.38,9.34,1.26,3,4.89,5.22,6.57,5.77,3,1,7.65-7,5-12.74A6.32,6.32,0,0,0,52.78,197.78Z" transform="translate(0 -110)"/><path class="cls-34" d="M55.35,195.16a4.86,4.86,0,0,0-5.58,2.61c-3.27,6.74,1.34,10.44,3.09,12.36a6.44,6.44,0,0,1,.56-1.9c-1-1-1.48-2.95-.39-3.71.74-.5,1.46.3,2,1.06.83-1,7-4.54,7-4.54a9.66,9.66,0,0,1,1.71,3.67c.71-1.1,2.51-3.58.71-6.48C60.22,191.4,55.35,195.16,55.35,195.16Z" transform="translate(0 -110)"/><path class="cls-39" d="M63.33,210.75a5,5,0,0,1-5.47,3,11,11,0,0,1-6-3.17c-.16-.09-1.09,0-1.09.42,0,1.43-1.56.91-2.12,2.14s-.72.95-1.7,1.55a4.66,4.66,0,0,0-1.5,1.63s2.62-.17,3.67,1.5a11.3,11.3,0,0,0,8.14,5.44c6.78.95,8.66-3.72,8.29-6.19A32,32,0,0,0,63.33,210.75Z" transform="translate(0 -110)"/><path class="cls-23" d="M53.48,198.91c-4.52,1.8-3.55,7.51-2.73,8.2s2.85,1.64,3.37.47A7.59,7.59,0,0,1,60,203.52c3.53-.52,3.76,1.19,3.76,1.19a3.71,3.71,0,0,0,1.18-1.37,2.44,2.44,0,0,0-.13-2.17A10,10,0,0,0,53.48,198.91Z" transform="translate(0 -110)"/><path class="cls-40" d="M58.19,193.7a13,13,0,0,0-6.56,1.48c-3.26,1.76-3.49,7.2-3,9.58s2.16,5.92,2.12,7.51,4,6.13,7.61,5.86S63.47,216,64,214.36a6.57,6.57,0,0,1-.53-2.82c.25-1.78,1.8-6.34,2-7.31.27-1.48.56-3.14-1.69-6.15A20.91,20.91,0,0,0,58.19,193.7Zm4.32,16.78c-2.11,2.56-4.88,4.38-7.42-1.25-1.69-3.73-.21-6.08.7-7.1,1.2-1.33,5.19-3.76,7.62-.21C64.54,203.57,64.62,207.92,62.51,210.48Z" transform="translate(0 -110)"/><path class="cls-47" d="M61,194.44a5.69,5.69,0,0,0-2.76-.74,20.91,20.91,0,0,1,5.54,4.38c2.25,3,2,4.67,1.69,6.15-.18,1-1.73,5.53-2,7.31a6.57,6.57,0,0,0,.53,2.82,4.42,4.42,0,0,0,.21-1.58c-.1-2,1-3.42,1.57-5.88s1.3-4.55,0-7.13A11.93,11.93,0,0,0,61,194.44Z" transform="translate(0 -110)"/><path class="cls-40" d="M62,219.78a7,7,0,0,1-6.4.33,23.24,23.24,0,0,1-5.12-3.64,17.6,17.6,0,0,0,4.2,4.24,7.05,7.05,0,0,0,7.55.43c3-1.59,2.49-3.61,2.49-3.61A7.88,7.88,0,0,1,62,219.78Z" transform="translate(0 -110)"/><path class="cls-40" d="M62.62,217.71a10.41,10.41,0,0,1-2.46,1.54,5.29,5.29,0,0,0,3.13-1.11,3.4,3.4,0,0,0,1.47-2.73A9.08,9.08,0,0,1,62.62,217.71Z" transform="translate(0 -110)"/><path class="cls-40" d="M50.06,213.74a10.78,10.78,0,0,0,3.1,4c2.21,1.75,3.76,1.38,3.76,1.38A13,13,0,0,1,53.16,217C51.83,215.63,50.06,213.74,50.06,213.74Z" transform="translate(0 -110)"/><path class="cls-39" d="M55.57,214A9.36,9.36,0,0,1,53,210.78,14.52,14.52,0,0,0,54.2,214a4.49,4.49,0,0,0,4.92,2,3.77,3.77,0,0,0,2.82-2.28,11.45,11.45,0,0,1-2.62,1.22C57.93,215.34,57,214.83,55.57,214Z" transform="translate(0 -110)"/><path class="cls-39" d="M53.71,201.12c-1.25,2.08-.75,5.38-.75,5.38a9.55,9.55,0,0,1,1-4.37,5.41,5.41,0,0,1,4-3.22S55,199.05,53.71,201.12Z" transform="translate(0 -110)"/><path class="cls-47" d="M60,196.14a6.68,6.68,0,0,0-4.07,1.16,19.31,19.31,0,0,1,4.6-.08A7.77,7.77,0,0,1,65,199.38a21.8,21.8,0,0,0-1.54-2.4S62.65,196.14,60,196.14Z" transform="translate(0 -110)"/><path class="cls-47" d="M60.16,194.06a7,7,0,0,0-4.26-.25,7.9,7.9,0,0,0-3,2,13.63,13.63,0,0,1,3.4-1.14,6.63,6.63,0,0,1,4.9.63S60.67,194.29,60.16,194.06Z" transform="translate(0 -110)"/><path class="cls-48" d="M133.85,187.34a4.62,4.62,0,0,0-2.88-.89s-.91,2.69,1.1,3.62a4.25,4.25,0,0,0,4-.47A5.8,5.8,0,0,0,133.85,187.34Z" transform="translate(0 -110)"/><path class="cls-49" d="M144.27,181.38c-.87-.49-2.23.12-3.59.62a4.36,4.36,0,0,1-2.72,0s.74-.5,1.24-.89,0-1.59-.62-.93-2.85.7-4,1.2-2.23,4.12-2.23,4.12c-1.16,2.36-4,6.68-5.31,9s-1.26,3.18-.8,4.87,2.52,3.24,4.28,1.26,2.59-6.79,3.36-9.18c.61-1.89,1-3.38,1.53-4.63.33-.39.76-.87,1.23-1.34,1.07-1.08,2.76-.28,5.86-1.48S145.14,181.87,144.27,181.38Z" transform="translate(0 -110)"/><path class="cls-50" d="M131,186.45c-2.07,2.52-3.32,4.9-4.4,6.17-.75-3.86-1.92-11.16-4.32-13.93-2.86-3.31-5.52-3.36-6.66-3.25,0,0,1,16.08,1.55,17s3.3,6.47,6.3,9.6a6.61,6.61,0,0,0,3.13,1.78,6.58,6.58,0,0,0,2.69-1.66,13.58,13.58,0,0,0,3.35-4.73c1.28-2.89,2.6-5.3,3.41-7.79C134.18,190.08,131.11,187.82,131,186.45Z" transform="translate(0 -110)"/><path class="cls-38" d="M129.6,267.74c-1.87-1.82-3.27-3.34-3.27-3.34l-8.51-.36v2.81a3.55,3.55,0,0,0,1.58,2,36.1,36.1,0,0,0,5.33,2.78,31.8,31.8,0,0,0,7.12,1.54c1.79.07,2.56-.77,1.62-1.69C131.87,269.92,131.33,269.43,129.6,267.74Z" transform="translate(0 -110)"/><path class="cls-38" d="M107.48,273.29l-7.68-.86a20,20,0,0,0,.72,9.91c1.8,5,5,5.08,6.06,4.68s1.62-3.59,1.42-7.22S107.48,273.29,107.48,273.29Z" transform="translate(0 -110)"/><path class="cls-51" d="M122.8,211.3c0-7.27,1.25-19.65.24-24.86a20,20,0,0,0-5.25-9.85c-5-2-9.85,1.78-9.85,1.78a31.7,31.7,0,0,0-5.21,2.92c-1.45,1.09-3.08,3-3.25,4.25-.24,1.79,2,11.2,1.84,18.74a33.14,33.14,0,0,1-1.84,8.84c-1.91,5.63-2.48,10.22-2,17.37.63,8.59-.24,15-1.23,23.33-1,8.82,0,13.61,0,19.18,3.27,2.9,6,3.84,10.72,3.05,3.3-.54,18.83-5.52,22.51-12,0-8,1.23-17.86,0-30.09C128.59,224.58,122.8,211.91,122.8,211.3Z" transform="translate(0 -110)"/><path class="cls-50" d="M114.76,177l-6.82,1.33-2.49,1.25a18.25,18.25,0,0,0,3.26,3.72c2.13,1.86,4.88,4.21,8.17,2.54,2.47-1.25,2-4.43.26-6.41A15.12,15.12,0,0,0,114.76,177Z" transform="translate(0 -110)"/><path class="cls-18" d="M120.49,165.1a26.21,26.21,0,0,0-3.33,1.55c-.48.41-3.65,9.81-2.6,11.36s1.86.6,4.42,2c1.72.92,3.89-1.37,3.1-6.51C121.25,168.12,120.49,165.1,120.49,165.1Z" transform="translate(0 -110)"/><path class="cls-52" d="M114.84,175.41s-4.77-4.88-6.8-4a54.61,54.61,0,0,1-1,7.78s5.15,6.53,8.15,5.31c2.79-1.13.5-5.2.5-5.2Z" transform="translate(0 -110)"/><path class="cls-46" d="M107.7,163.76c-1.41,1.8-1.85,6.33.1,9.51,1.73,2.83,5.68,4.43,7.44,4.72,3.14.5,6.52-8.16,2.94-13.46A6.38,6.38,0,0,0,107.7,163.76Z" transform="translate(0 -110)"/><path class="cls-34" d="M109.69,160.91c-4.19.32-4.74,3.8-4.74,6.08a8.16,8.16,0,0,0,2.52,5.83s-.1-2.22.57-2.8,1.11-.22,1.43,1c.34.12,1-1.47.66-4.26,0,0,9.13.19,8.44-3.6C118,160.08,112.77,157.19,109.69,160.91Z" transform="translate(0 -110)"/><polygon class="cls-23" points="111.98 88 125.85 110.77 139.71 118.23 126.21 95.73 111.98 88"/><path class="cls-48" d="M118.57,211.55c-.91-.58-4,1.91-4,1.91l2.33,5.29c.62.21,1.78-1,2.09-3.35S119.49,212.14,118.57,211.55Z" transform="translate(0 -110)"/><path class="cls-46" d="M127.51,214.36c-1.93-.66-4.07-1.29-4.07-1.29s1.46-.62,1.81-1.37,0-1-.57-.93-5.16,2.44-8.08.93-6.95-4.65-8.31-5.21-2.09,1.17-2.84,2.52-1,3.07,0,3.86,7.36,2.1,11.15,3.19,5.71,3.2,9.4,2.69S131,215.55,127.51,214.36Z" transform="translate(0 -110)"/><path class="cls-50" d="M107.06,203.16a41.25,41.25,0,0,0-.58-12.36,17.16,17.16,0,0,0-5.26-8.14,10.82,10.82,0,0,0-4.92,9.54,80.36,80.36,0,0,0,2.63,16c.36,1.13.55,2.3,1.3,2.84,3.88,2.79,13.13,7,16.66,7.69-.44-2.31-.3-6.13,2.09-6.92-1.42-1.05-10.94-6.54-10.94-6.54A3.29,3.29,0,0,0,107.06,203.16Z" transform="translate(0 -110)"/><path class="cls-50" d="M115.22,185.9c.59,1.51.72,2.33,1.28,5.89a62.5,62.5,0,0,1,.58,8.08l1.5-1s-.26-12-2.08-13.9A2.94,2.94,0,0,0,115.22,185.9Z" transform="translate(0 -110)"/><path class="cls-18" d="M118.61,160s-7.3-2.6-11,.34c-2.62,2.1-.48,3.33-1.16,5.81s.36,8.9-1.7,12-6,3.59-5.84,6.65h0a2.69,2.69,0,0,1,2.38-.81c2.79.63,4.57.18,5.16-1.51,1.46-4.12,3.1-4.1,4.34-7.08a18.22,18.22,0,0,0,1-7,2.25,2.25,0,0,1,2.74-.58,4.19,4.19,0,0,0,4.46-.46c1.32-1.37,2,.51,3.89-2a7.64,7.64,0,0,1-2.84-1.81A4.77,4.77,0,0,0,118.61,160Z" transform="translate(0 -110)"/><path class="cls-53" d="M104.78,160.88A5.08,5.08,0,0,0,104,165a61.13,61.13,0,0,0-1.34,7.71c-.22,3.25-.44,4.81-2.71,7.23a8.58,8.58,0,0,0-2,6,5.57,5.57,0,0,1,1-1.16h0c-.17-3.06,4-3.16,6-6.28s1.31-10.54,2-13,.13-3,.86-4.15c1.75-2.85,10.82-1.38,10.82-1.38a5.76,5.76,0,0,0-3-1.42C109.55,157.45,106.23,158.82,104.78,160.88Z" transform="translate(0 -110)"/><path class="cls-38" d="M120,162.84s-1.15.62-6.3,1.39a37.67,37.67,0,0,1-9.84,0,1,1,0,0,0-.05,1.61,29.89,29.89,0,0,0,9.28,0c5.16-.8,6.34-1.15,7.21-1.78C120.84,163.15,120,162.84,120,162.84Z" transform="translate(0 -110)"/><path class="cls-50" d="M114.56,227.13c0,5.21.61,15.24,3.28,21.73a76.11,76.11,0,0,0,7.35,13,161.87,161.87,0,0,1-6-15.51A187.33,187.33,0,0,1,114.56,227.13Z" transform="translate(0 -110)"/><path class="cls-50" d="M110.55,235c-.21,1.71,0,17.84,2.39,23.32a30.19,30.19,0,0,0,5.7,8.67,58.78,58.78,0,0,1-4.75-16.25A109.09,109.09,0,0,0,110.55,235Z" transform="translate(0 -110)"/><path class="cls-46" d="M164,219.71s0,8.08-.31,11.48c-.45,5.13-.35,7.58,1.13,14.47a123.61,123.61,0,0,1,1.26,18.7c-.32,6-3.07,8.79-4,10.26s2.62,2.87,4.86.72,2.49-2.57,3.76-3.25.84-2.28.74-5.65c-.07-2.61,1.06-11.28,1.49-16.85.62-7.9-1.11-8.07-1-12.06a59.34,59.34,0,0,1,2.26-14.89C174.86,221,164,219.71,164,219.71Z" transform="translate(0 -110)"/><path class="cls-54" d="M172.5,268.12l-.07-.21h0a5,5,0,0,0-1-1.48s-.53,4.78-3.34,6.75c-3.13,2.2-4.53,2.53-6,1.43a33.74,33.74,0,0,1-2.49,3c-.92,1-.15,2.06,2.59,1.86a6.87,6.87,0,0,0,4.65-2.3,35.72,35.72,0,0,1,3.25-4.19l.47-.43h0c.09,1.26,0,2.07.11,3,.26.42.67.32,1,0a17.42,17.42,0,0,1,.51-3.8,6.92,6.92,0,0,0,.32-3.63Z" transform="translate(0 -110)"/><path class="cls-46" d="M185.23,249.64c-.55-3.37-1.71-5.4-2.06-7.25-.29-1.59,1-8.4,1-8.4l-9.83,3.39s1.54,11.3,2.32,15.38,2.89,17.28,2.63,20.66a40,40,0,0,1-1.65,7.35c-.57,1.92.19,3.33,1.49,3.73,2.34.72,5.35-7.27,5.18-11C184.07,268,185.78,253,185.23,249.64Z" transform="translate(0 -110)"/><path class="cls-54" d="M184.54,281.1s.14-1,.2-2.13.27-3.42.27-3.42a10.33,10.33,0,0,0-1.64,5.27C183.61,281.84,184.54,281.1,184.54,281.1Z" transform="translate(0 -110)"/><path class="cls-54" d="M184.31,273a18.44,18.44,0,0,1-1.16,5.8c-1.45,3.38-2.58,4.1-4.06,4.14s-1.43-2.35-1.43-2.35-.44,1.3-1,4c-.26,1.16-.06,2.65,1.14,2.82,3,.44,4-1.57,4.57-2.82.76-1.57,1.56-5.77,2.28-7.89C185.86,274.13,184.31,273,184.31,273Z" transform="translate(0 -110)"/><path class="cls-55" d="M171.86,173.53c-2.23-1.29-2.84-2.29-4.7-.28-3.36,3.64-7.74,12.91-9.19,16.63-2.24,5.75.3,8,2.78,7C166.62,194.62,178.15,177.16,171.86,173.53Z" transform="translate(0 -110)"/><path class="cls-56" d="M172.76,171.65a22.55,22.55,0,0,1-.6,5.61,4.65,4.65,0,0,0-.42,1.07,5.41,5.41,0,0,0,3.83-.64,14.45,14.45,0,0,0,3-3c.06-.19.14-.37.19-.58a23,23,0,0,1,.6-7.75C177.06,165.29,172.76,171.65,172.76,171.65Z" transform="translate(0 -110)"/><path class="cls-54" d="M184,195.16c1.22-8.15,2.35-15.11,2.17-15.42-1.17-2-6.55-5.9-6.55-5.9H178l-4.79-2.67s-.51-.13-1.25-.26c-1.1,1.22-3.42,4.37-4.46,5.83-1.77,2.48-4.49,5.81-3.46,10.07a48.94,48.94,0,0,1,1.52,7.92c.17,4.15-.93,9.91-1.59,13.4-2,10.54-1,25.86-.16,58.31,0,0,8.33,13.11,25.08,5.39.81-5.79,1.1-18.67,1.17-28.66.12-17.84,0-26.29-1.7-32.06C187.19,207.22,183.05,201.61,184,195.16Z" transform="translate(0 -110)"/><path class="cls-46" d="M168.34,160.91c-2.76,5.9,2,14.08,5.1,13.08,1.72-.57,5.45-2.81,6.74-5.93,1.46-3.51.3-8-1.41-9.59A6.5,6.5,0,0,0,168.34,160.91Z" transform="translate(0 -110)"/><path class="cls-46" d="M188.46,219.78s-1.41,4.17-1.38,5.75.88,2.6,1.38,1.08.38-2.77,1.21-2.69.55,1.82-.49,3.44-.78,4.25,1.06,3.41,3.39-3.45,3.38-6.77-.92-4.22-.92-4.22Z" transform="translate(0 -110)"/><path class="cls-55" d="M192.29,192.2c-1.94-8.08-5.06-15.45-8.21-14.06-2.81,1.25-3.32,5.66-2.43,9.81a122.68,122.68,0,0,0,3.69,12.8v19.62s5.73,5.06,9.76,0c.47-6.37-1.06-16.55-1.3-20.07A40,40,0,0,0,192.29,192.2Z" transform="translate(0 -110)"/><path class="cls-46" d="M151.15,173c.39-1-.12-1.44-.76-.71-.94,1.07-.78,2-1.5,2s-1.64-3.79-3.8-4.17-3.05,1.85-.7,5.71a44.69,44.69,0,0,0,3.24,4,13.26,13.26,0,0,1,1.67,2.78l3.77-1.27s-1.52-3.73-1.92-5.05C150.55,174.3,150.85,173.79,151.15,173Z" transform="translate(0 -110)"/><path class="cls-55" d="M154,178c-1.68,2.1-6.92,4.63-6.92,4.63S151,192,153.83,195s6.38,2.64,7.6,1.6-.92-7.14-1.6-8.45S158,184.39,154,178Z" transform="translate(0 -110)"/><path class="cls-57" d="M184.19,176s-1.33-3.44-3.35-3.7-3.07,4-6.47,3.52-6.07-3.52-6.07-3.52a2.37,2.37,0,0,0-1.87,2.89c.33,2.53-1.58,3-2,3.85-.83,1.86,2.85,4.66,7,8s9.63,3,13.56,1.22a16.7,16.7,0,0,0,5.34-3.29s-1.82-5.8-3.37-7.49S184.19,176,184.19,176Z" transform="translate(0 -110)"/><path class="cls-57" d="M170.15,156.79a7.2,7.2,0,0,0-3.48,4.4,26.43,26.43,0,0,0-.49,3.36,17.15,17.15,0,0,0,1.33,8.57c1.48,2.58,3.05,5.47,5.56,5s6.51-1.58,7.77-5.83a18.72,18.72,0,0,0-1-13.64C178.52,155.77,174.64,154.44,170.15,156.79Zm3.3,16.74c-3.11.63-5-3.37-5.39-5.85a11.69,11.69,0,0,1,0-4.51c.14-.54,1.31-1.46,3.11-1.42a4.84,4.84,0,0,1,4.5,2.85C177.38,169.28,176.05,173,173.45,173.53Z" transform="translate(0 -110)"/><path class="cls-55" d="M177.11,222.19s-.56,15.22.24,25c1.18,14.34,2,21.74,2,21.74s.76-11,.64-20.19A179.25,179.25,0,0,0,177.11,222.19Z" transform="translate(0 -110)"/><path class="cls-55" d="M167.51,263.72s.71-4.26,2.06-14.07S171,224.87,171,224.87s-2.57,13.31-2.88,21.06S167.51,263.72,167.51,263.72Z" transform="translate(0 -110)"/><path class="cls-55" d="M169.74,180a5,5,0,0,0-3.64-1.52,35,35,0,0,1,4.18,3.79c2,2.17,3.87,4.51,6.12,4.46a14.66,14.66,0,0,0,3.92-.59s-3.8-.23-5.29-1.16S171.44,181.68,169.74,180Z" transform="translate(0 -110)"/><path class="cls-55" d="M184.9,178.19c-.82-.05-1.13,1.44-3.06,2.53a8.33,8.33,0,0,1-5,1.3,20.18,20.18,0,0,1-3.95-.7,8,8,0,0,0,6.81,1.7,13.21,13.21,0,0,0,6.12-3.71S185.72,178.23,184.9,178.19Z" transform="translate(0 -110)"/><path class="cls-55" d="M181.25,174.66a6.22,6.22,0,0,1-3.47,2.79,10.12,10.12,0,0,1-6-.35,20.46,20.46,0,0,0-4.23-1s4.62,3.64,8.91,2.87,5.15-2.17,5.62-3.18S181.63,174.27,181.25,174.66Z" transform="translate(0 -110)"/><path class="cls-7" d="M201.38,215.34c0,.63,1,1.15,2.15,1.15s2.16-.52,2.16-1.15V205.21h-4.31Z" transform="translate(0 -110)"/><path class="cls-7" d="M268.39,254c0,.63,1,1.14,2.15,1.14s2.15-.51,2.15-1.14V243.9h-4.3Z" transform="translate(0 -110)"/><path class="cls-7" d="M300.26,235.56c0,.63,1,1.14,2.15,1.14s2.16-.51,2.16-1.14V225.43h-4.31Z" transform="translate(0 -110)"/><path class="cls-27" d="M227.51,153.93c-.77,9,.9,34.06.9,34.06l6.16-3.56V141.94C232,142,228.13,146.63,227.51,153.93Z" transform="translate(0 -110)"/><path class="cls-27" d="M229.66,157.58c0,6.07,1.08,27.14,1.08,27.14L299.88,226s-.18-27.14,1-31.32,5.2-11.54,5.2-11.54l-71.48-41.23S229.66,151.52,229.66,157.58Z" transform="translate(0 -110)"/><path class="cls-25" d="M229.84,146a19.6,19.6,0,0,0-1.28,2.85l71.74,41.25,3.64-4.64L231.62,143.6A11.26,11.26,0,0,0,229.84,146Z" transform="translate(0 -110)"/><path class="cls-58" d="M259.29,176.05c-.51,9.46,2,30.52,2,30.73l1.12-.14c0-.21-2.48-21.17-2-30.53s6.6-13.16,8.78-14.2l-1.16-.67C265.28,162.79,259.77,167,259.29,176.05Z" transform="translate(0 -110)"/><path class="cls-58" d="M299,195.16c-.77,9.05.9,34.06.9,34.06l6.17-3.57V183.17C303.49,183.25,299.61,187.85,299,195.16Z" transform="translate(0 -110)"/><polygon class="cls-25" points="201.02 88.02 268.78 128.52 299.98 112.94 227.95 71.23 201.02 88.02"/><path class="cls-25" d="M198.25,204.58,228,187.69v-6.46c-4,1.22-23.78,9.18-28.11,11.75C195,195.85,198.25,204.58,198.25,204.58Z" transform="translate(0 -110)"/><polygon class="cls-25" points="198.25 94.58 270.28 136.28 270.54 124.77 198.25 85.98 198.25 94.58"/><path class="cls-30" d="M198.31,194.4a6.27,6.27,0,0,0-1,2.88l72.36,41.6,3.64-4.64-72.33-41.86A6.81,6.81,0,0,0,198.31,194.4Z" transform="translate(0 -110)"/><path class="cls-58" d="M270.28,246.28,300,229.17v-6.23c-4,1.22-23.77,9.18-28.11,11.75C267,237.55,270.28,246.28,270.28,246.28Z" transform="translate(0 -110)"/><path class="cls-27" d="M231.63,213c-2.41,2.24-1.86,7.14-1.22,10.19.3.14.74.45,1.33.77-.74-3-1.45-8.16.67-10.13,5.68-5.28,26.14-12,29.41-13-.49-.25-1.05-.6-1.33-.77C255.21,201.78,237.14,207.88,231.63,213Z" transform="translate(0 -110)"/><path class="cls-28" d="M202.77,283.74c0,.83,1.25,1.5,2.8,1.5s2.81-.67,2.81-1.5V265.27h-5.61Z" transform="translate(0 -110)"/><path class="cls-59" d="M205.57,264c-1.55,0-2.8.67-2.8,1.49s1.25,1.5,2.8,1.5,2.81-.67,2.81-1.5S207.13,264,205.57,264Z" transform="translate(0 -110)"/><path class="cls-28" d="M261.06,283.74c0,.83,1.26,1.5,2.81,1.5s2.81-.67,2.81-1.5V265.27h-5.62Z" transform="translate(0 -110)"/><path class="cls-59" d="M263.87,264c-1.55,0-2.81.67-2.81,1.49s1.26,1.5,2.81,1.5,2.81-.67,2.81-1.5S265.42,264,263.87,264Z" transform="translate(0 -110)"/><path class="cls-60" d="M232.49,266.75c0,.83,1.26,1.5,2.81,1.5s2.81-.67,2.81-1.5V248.28h-5.62Z" transform="translate(0 -110)"/><path class="cls-59" d="M235.3,247c-1.55,0-2.81.67-2.81,1.49s1.26,1.49,2.81,1.49,2.81-.66,2.81-1.49S236.85,247,235.3,247Z" transform="translate(0 -110)"/><path class="cls-28" d="M231.91,301c0,.82,1.26,1.49,2.81,1.49s2.81-.67,2.81-1.49V282.54h-5.62Z" transform="translate(0 -110)"/><path class="cls-59" d="M234.72,281.26c-1.55,0-2.81.67-2.81,1.5s1.26,1.49,2.81,1.49,2.81-.67,2.81-1.49S236.27,281.26,234.72,281.26Z" transform="translate(0 -110)"/><path class="cls-12" d="M235,285.08c-19.43,0-35.18-8.87-35.18-19.8v4.2c0,10.94,15.75,19.8,35.18,19.8s35.19-8.86,35.19-19.8v-4.2C270.15,276.21,254.4,285.08,235,285.08Z" transform="translate(0 -110)"/><path class="cls-61" d="M199.78,265.28c0-.31,0-.61,0-.91h0Z" transform="translate(0 -110)"/><path class="cls-61" d="M270.15,265.28v-.91h0C270.13,264.67,270.15,265,270.15,265.28Z" transform="translate(0 -110)"/><path class="cls-10" d="M235,245.47c-18.89,0-34.3,8.39-35.14,18.9,0,.3,0,.6,0,.91,0,10.93,15.75,19.8,35.18,19.8s35.19-8.87,35.19-19.8c0-.31,0-.61,0-.91C269.27,253.86,253.86,245.47,235,245.47Z" transform="translate(0 -110)"/><path class="cls-23" d="M213.11,257.6c0,1.95,3,3.53,6.65,3.53s6.64-1.58,6.64-3.53l1-8.84h-15.2Z" transform="translate(0 -110)"/><path class="cls-62" d="M219.76,244.72c-4.2,0-7.6,1.81-7.6,4s3.4,4,7.6,4,7.6-1.81,7.6-4S224,244.72,219.76,244.72Z" transform="translate(0 -110)"/><path class="cls-63" d="M219.76,245.07c-3.91,0-7.07,1.65-7.07,3.69a2,2,0,0,0,.07.54c.5-1.78,3.44-3.15,7-3.15s6.49,1.37,7,3.15a2,2,0,0,0,.08-.54C226.83,246.72,223.66,245.07,219.76,245.07Z" transform="translate(0 -110)"/><path class="cls-60" d="M219.76,246.15c-3.56,0-6.5,1.37-7,3.15.5,1.77,3.44,3.14,7,3.14s6.49-1.37,7-3.14C226.25,247.52,223.31,246.15,219.76,246.15Z" transform="translate(0 -110)"/><path class="cls-22" d="M223.56,238.54c-1.2-.54-2.1,0-3,1-2.16,2.44-.8,9.85-.8,9.85l1.33-.1s1-4,1.53-5.44,2-4.27,2-4.27A2.63,2.63,0,0,0,223.56,238.54Z" transform="translate(0 -110)"/><path class="cls-22" d="M215.39,240.84l2.87,7.69,2.25.23s-1-6.37-1.64-7.28C216.7,238.33,215.39,240.84,215.39,240.84Z" transform="translate(0 -110)"/><path class="cls-16" d="M226.94,240c-4,2.24-7.49,10-7.49,10l2.29.1s3.45-5.63,7.09-8.3a36,36,0,0,1,5.1-2.69S229.86,238.37,226.94,240Z" transform="translate(0 -110)"/><path class="cls-22" d="M221.51,249.42l1.09.13a59.51,59.51,0,0,1,5.78-7.11,21,21,0,0,1,5.55-3.29,12.06,12.06,0,0,0-6.64,2.83A31.42,31.42,0,0,0,221.51,249.42Z" transform="translate(0 -110)"/><path class="cls-22" d="M212.76,238.78c-2.91-.67-3.77.27-3.77.27a8.2,8.2,0,0,1,4.94,2.73c2.1,2.33,3.42,6.57,3.42,6.57l.49,2.16,1.92.35.39-.52s-.7-5.38-2.8-8S214.16,239.1,212.76,238.78Z" transform="translate(0 -110)"/><path class="cls-14" d="M232.41,243.48c-2.71-.7-6.72,0-8.21,2.39l-1.5,2.42s4-3.22,5.82-3.29,8,1.79,8,1.79A7.23,7.23,0,0,0,232.41,243.48Z" transform="translate(0 -110)"/><path class="cls-15" d="M232.52,244.72c-.93.13-1.41.16-1.41.16a4.66,4.66,0,0,0,1-1.26,10.25,10.25,0,0,0-2,1,3.94,3.94,0,0,0,.29-1.18,5.12,5.12,0,0,0-1,1.39l2.77.43s1.3-.24,2.09-.44A2.55,2.55,0,0,0,232.52,244.72Z" transform="translate(0 -110)"/><path class="cls-16" d="M226.09,244.79c-4.1,1.48-6.33,6.07-6.33,6.07a6.3,6.3,0,0,0,1.33.11c.42-.5.89-1.07,1.32-1.67,1.2-1.67,2.87-3.6,5.25-4.23,1.58-.41,4.22.42,5.8,1,1.72.32,3,.7,3,.7S230.19,243.31,226.09,244.79Z" transform="translate(0 -110)"/><path class="cls-22" d="M227.66,245.07a10.39,10.39,0,0,0-5.49,4c-.44.6-.66,1.37-1.08,1.87a3.13,3.13,0,0,0,1.61-.43c1.58-1,2.63-4.55,5.82-4.83a19.76,19.76,0,0,1,4.94.38C231.88,245.49,229.24,244.66,227.66,245.07Z" transform="translate(0 -110)"/><path class="cls-15" d="M209.28,243.85c-2.62.47-3,2.65-3.43,4.91a12.23,12.23,0,0,1,8.87-3.2S211.9,243.38,209.28,243.85Z" transform="translate(0 -110)"/><path class="cls-16" d="M209.75,245.07c-2.66.7-3.9,3.69-3.9,3.69a6.47,6.47,0,0,1,2.08-1.4,4.88,4.88,0,0,1,4.83-1.21c2.32.49,4.33,1.79,5,3.61.14.35.25.66.35.94a5,5,0,0,0,1.07-.15,35.48,35.48,0,0,0-2-3.46C215.24,244.31,211.88,244.51,209.75,245.07Z" transform="translate(0 -110)"/><path class="cls-22" d="M212.76,246.15a4.88,4.88,0,0,0-4.83,1.21,8.88,8.88,0,0,1,3.59-.76c2.8,0,4.18,3.16,4.18,3.16a2.91,2.91,0,0,0,2.44.94c-.1-.28-.21-.59-.35-.94C217.09,247.94,215.08,246.64,212.76,246.15Z" transform="translate(0 -110)"/><path class="cls-16" d="M212.76,232.88s1.17,1.77,2.92,4.78a40.29,40.29,0,0,1,3.74,12.43l0,.23c.22.13.86-.18.86-.18s.07-8.8-2.36-12.9A10.55,10.55,0,0,0,212.76,232.88Z" transform="translate(0 -110)"/><path class="cls-22" d="M214.75,234.61a6.22,6.22,0,0,1,.64,2.56c-.07,1.09.14,1.37.14,1.37l.73.61a3.35,3.35,0,0,0,0-2.6A4.86,4.86,0,0,0,214.75,234.61Z" transform="translate(0 -110)"/><path class="cls-22" d="M217,237.06a6.26,6.26,0,0,1,.31,2.83,3.2,3.2,0,0,1-.67,1.65l.67.81a3.72,3.72,0,0,0,.79-2.45A3.86,3.86,0,0,0,217,237.06Z" transform="translate(0 -110)"/><path class="cls-22" d="M217.72,245l.23,1a4.4,4.4,0,0,0,.92-4.48A5.66,5.66,0,0,1,217.72,245Z" transform="translate(0 -110)"/><path class="cls-15" d="M212.76,232.88s.53,1.72,1.17,3.49,2,4.35,2.6,6c.41,1.13,2.47,7.79,2.47,7.79l.42,0a40.29,40.29,0,0,0-3.74-12.43C213.93,234.65,212.76,232.88,212.76,232.88Z" transform="translate(0 -110)"/><path class="cls-16" d="M225,249.06a3.59,3.59,0,0,0-2.31,1.08l.55.39a2.29,2.29,0,0,1,1.46-.39,11.32,11.32,0,0,1,2.68.74S226.19,249.1,225,249.06Z" transform="translate(0 -110)"/><path class="cls-22" d="M222.39,250.71l.54.16a3.3,3.3,0,0,1,1.65-.66,7.41,7.41,0,0,1,2.78.67,4.81,4.81,0,0,0-2.68-1.12A3.64,3.64,0,0,0,222.39,250.71Z" transform="translate(0 -110)"/><path class="cls-15" d="M214.14,249.91c-1.81.72-1.42,2.09-1.42,2.09a3.31,3.31,0,0,1,2-1.49,3.4,3.4,0,0,1,2.71.33l.15-.16S215.67,249.31,214.14,249.91Z" transform="translate(0 -110)"/><path class="cls-22" d="M213,251.08a2.09,2.09,0,0,1,.58-.2,1.64,1.64,0,0,1,.95.14l.15-.14a1.57,1.57,0,0,0-.81-.33A.82.82,0,0,0,213,251.08Z" transform="translate(0 -110)"/><path class="cls-22" d="M215,250.22a1.52,1.52,0,0,0-1,0,4.72,4.72,0,0,1,.59.09,1.53,1.53,0,0,1,.65.48h.31A1.4,1.4,0,0,0,215,250.22Z" transform="translate(0 -110)"/><path class="cls-14" d="M217.44,250.84a3.4,3.4,0,0,0-2.71-.33,3.31,3.31,0,0,0-2,1.49,20,20,0,0,1,2.66-.89c1.12-.25,1.66.19,2.34.08A.68.68,0,0,0,217.44,250.84Z" transform="translate(0 -110)"/><path class="cls-14" d="M228.53,244.92c-2-1.15-4.21.68-4.21.68a5.08,5.08,0,0,1,2.69.22,27.33,27.33,0,0,1,3,2S229.78,245.63,228.53,244.92Z" transform="translate(0 -110)"/><path class="cls-15" d="M227.17,245.39a3.65,3.65,0,0,0-1.12.58l.64.19s.33-.51,2-.49A2.22,2.22,0,0,0,227.17,245.39Z" transform="translate(0 -110)"/><path class="cls-15" d="M224.32,245.75s.2.28.78.13a8.22,8.22,0,0,0,1.73-.92A4.71,4.71,0,0,0,224.32,245.75Z" transform="translate(0 -110)"/><path class="cls-15" d="M222.31,246.23c-1.42,1.05-1.61,4.28-1.61,4.28l.76-.1a1.42,1.42,0,0,1,0-.44,4.16,4.16,0,0,1,3.33-3.25,4.63,4.63,0,0,1,3.23.61c1,.21,1.94.45,1.94.45a8.31,8.31,0,0,0-4.92-2.45A4,4,0,0,0,222.31,246.23Z" transform="translate(0 -110)"/><path class="cls-22" d="M224.84,246.72a4.16,4.16,0,0,0-3.33,3.25,1.42,1.42,0,0,0,0,.44l.22,0a9.44,9.44,0,0,1,1.25-2,4.56,4.56,0,0,1,3.66-1.29c.43.06,1,.16,1.48.27A4.63,4.63,0,0,0,224.84,246.72Z" transform="translate(0 -110)"/><path class="cls-22" d="M224.48,236.12a7.6,7.6,0,0,0-2.07,4.42l6.44-5.07A4.39,4.39,0,0,0,224.48,236.12Z" transform="translate(0 -110)"/><path class="cls-15" d="M223.68,237.59c-1.54,1.7-2.41,5-2.59,7.11s-.58,5.64-.58,5.64l.58-.4s2.08-7.37,3.49-9.93a15.92,15.92,0,0,1,4.27-4.54A6.78,6.78,0,0,0,223.68,237.59Z" transform="translate(0 -110)"/><path class="cls-15" d="M221.09,249.94c-1.2.06-3.2-.53-3.72.89a2.74,2.74,0,0,0,.19,1l6.12-.34S223.81,249.81,221.09,249.94Z" transform="translate(0 -110)"/><path class="cls-14" d="M223.22,250.53c-1,.58-4.19.77-5.85.3-.06.14-.43.44-.3,1.77.16,1.66.79,2.35,2.69,4.48a5.85,5.85,0,0,0,3.92-5.55C223.62,251.08,223.45,250.61,223.22,250.53Z" transform="translate(0 -110)"/><path class="cls-15" d="M220.51,250.34a19.88,19.88,0,0,0-2.11,1,4.72,4.72,0,0,0-1.05,1,11.24,11.24,0,0,1,1.16-.58c.51-.2,1.25-.45,1.25-.45a3.77,3.77,0,0,0-.89,1.61,7.23,7.23,0,0,0-.24,2.35s.37-1.07.58-1.75a17.62,17.62,0,0,1,1.16-2.25,6.25,6.25,0,0,1,.51,2.1c.07,1.18.21,2.52.21,2.52a5.49,5.49,0,0,0,.42-2,14.87,14.87,0,0,0-.42-3,5.48,5.48,0,0,1,1.08.9c.46.61.76.93.76.93a4.6,4.6,0,0,0-.62-1.3A5.43,5.43,0,0,0,220.51,250.34Z" transform="translate(0 -110)"/><polygon class="cls-17" points="212.38 86.52 233.12 98.58 252.59 87.35 231.79 75.33 212.38 86.52"/><polygon class="cls-23" points="214.23 86.13 233.06 97.07 250.73 86.88 231.86 75.97 214.23 86.13"/><polygon class="cls-19" points="212.38 81.72 233.12 93.77 252.59 86.3 231.79 74.29 212.38 81.72"/><polygon class="cls-18" points="212.38 86.52 233.12 98.58 233.12 93.77 212.38 81.72 212.38 86.52"/><polygon class="cls-23" points="216.09 87.26 231.3 96.13 231.3 94.13 216.09 85.26 216.09 87.26"/><polygon class="cls-23" points="213.43 87.13 214.63 87.83 214.63 83.02 213.43 82.33 213.43 87.13"/><path class="cls-42" d="M277,223.51s-1.65,1.4-1.24,2.32,2.56,1.24,3.6.54S277,223.51,277,223.51Z" transform="translate(0 -110)"/><path class="cls-46" d="M318,260.34s-1.42,4.17-1.39,5.75.88,2.6,1.39,1.07.37-2.76,1.2-2.68.55,1.82-.49,3.44-.78,4.25,1.06,3.4,3.39-3.44,3.38-6.76-.92-4.22-.92-4.22Z" transform="translate(0 -110)"/><path class="cls-64" d="M291.39,210.42c-5.49,7.56-5.39,17.8-5.39,17.8a44.18,44.18,0,0,0-4.89-5.27,6.63,6.63,0,0,1-5.31,2.88s1.79,4,3.74,7.95a8.34,8.34,0,0,0,4.73,4.38c1.77.8,3.1,1.14,4.33.47,6.76-3.68,12.22-28.21,12.22-28.21L296.73,209S294.56,206.07,291.39,210.42Z" transform="translate(0 -110)"/><path class="cls-23" d="M279.06,224.9a7.76,7.76,0,0,1-3.26.93l1,2.24a6.75,6.75,0,0,0,3.08-.61,7.16,7.16,0,0,0,3.1-2.63l-1.55-1.64A7.9,7.9,0,0,1,279.06,224.9Z" transform="translate(0 -110)"/><path class="cls-38" d="M320.17,285.78l-4.11,8a11.54,11.54,0,0,1-.26,3.8c-.73,2.4-2.36,5.83-.79,6.25,2.64.73,6.13-.62,7.66-5.38,1.27-3.91,3.47-8.81,2.2-10.63C323.92,287.3,320.17,285.78,320.17,285.78Z" transform="translate(0 -110)"/><path class="cls-38" d="M285,319.21c-1.8,1.76-2.36,2.26-4,3.9-1,.95-.17,1.83,1.7,1.76a33,33,0,0,0,7.42-1.61,36.83,36.83,0,0,0,5.56-2.9,3.62,3.62,0,0,0,1.65-2.08v-2.94l-8.88.38S287,317.3,285,319.21Z" transform="translate(0 -110)"/><path class="cls-64" d="M305.86,271.5c-2-2.86-5.09,4.39-7.46,12s1.13,30.56,1.13,30.56c.36-.78,7-5.93,9.62-8.88,3.32-3.7,5.12-3,9.39-9.85s2.17-10.57,2.17-10.57S307.86,274.36,305.86,271.5Z" transform="translate(0 -110)"/><path class="cls-23" d="M305.22,211.75s-.52,4.22-3.91,4.35a3.81,3.81,0,0,1-4-3l.76-4.12-2.28-.77a17.61,17.61,0,0,0-4.42,5.08c-1.8,3.2-4.25,7.77-2.43,14.74s.82,16.48.55,20.14-.72,13.69,0,20.14a97.12,97.12,0,0,1-.84,24.2c-.87,4.69-3.77,22.87-3.77,22.87s.41,1.84,5.66,2.7a14.85,14.85,0,0,0,10.78-2.7c2.27-2,5-3.22,5.2-7.56s-.77-20.49.89-24.79,3.58-7.27,4.73-11.5c1.52-5.58,3.1-8.43,2.29-16.79s-2.54-14.15-2.88-17.07,2-6.79,3.58-9.64.73-6.65-1.82-10.92S305.22,211.75,305.22,211.75Z" transform="translate(0 -110)"/><path class="cls-64" d="M297.33,211s-1.72,3.64-1.72,5.53,2.58,4.51,6,2.48,4.25-3.41,4.91-4.63a10.72,10.72,0,0,0,.89-2,15.36,15.36,0,0,0-3.12-1.41C302.63,210.49,297.33,211,297.33,211Z" transform="translate(0 -110)"/><path class="cls-65" d="M291.37,201.38s-1.34,5.22,0,8.15,4.59,3.78,5.91,2.16-.72-9.5-.72-9.5Z" transform="translate(0 -110)"/><path class="cls-52" d="M297.69,210.32l-.36,5.11s-.59,2.47,2.4,2.47c3.6,0,6-5.08,6-5.08l-1.33-7.41Z" transform="translate(0 -110)"/><path class="cls-46" d="M294.18,197.51c-3.77,5.58-.2,14.71,3.1,14.18,1.85-.3,6-2,7.85-5,2.05-3.35,1.59-8.12.1-10A6.72,6.72,0,0,0,294.18,197.51Z" transform="translate(0 -110)"/><path class="cls-38" d="M302.78,194.17c-3.24-3.93-9.84-.29-10.89,2.82a7.26,7.26,0,0,0,.67,6.75s-.35-2.57,3.05-3.42c2.32,2.62,6.39,1.81,6.41,1.8.3,1.86.64,2.82,1,2.69.33-1.27.88-1.57,1.5-1s.61,2.94.61,2.94a8.62,8.62,0,0,0,2.65-6.15C307.77,198.17,307.2,194.51,302.78,194.17Z" transform="translate(0 -110)"/><path class="cls-66" d="M280.64,215.53a2.12,2.12,0,0,0-1.22-1.45l-3.89-1.22a.56.56,0,0,0-.55.08l-.45.41.32.58h0l1.86,8.33A2.09,2.09,0,0,0,278,223.7l3.71,1.17.26.43.48-.44a.75.75,0,0,0,.15-.78Z" transform="translate(0 -110)"/><path class="cls-67" d="M280.19,216a2.12,2.12,0,0,0-1.22-1.45l-3.89-1.22c-.54-.17-.86.21-.72.84l1.91,8.56a2.11,2.11,0,0,0,1.23,1.45l3.88,1.22c.54.16.86-.21.72-.84Z" transform="translate(0 -110)"/><path class="cls-46" d="M281.93,219.32c.27-.69.2-1.27-.37-1.44-.26-.95-.29-1.15-1.27-.78-1.38.53-3.12,1.52-3.66,1.34-.81-.28-1.83-2.34-1.83-2.34a12.06,12.06,0,0,0-.27,3.88c.11,1.2,1.29,4.59,2.54,5.66a6.14,6.14,0,0,0,2.55-.93,2.09,2.09,0,0,1-.28-.58c1.11-.84,1.59-1.85,2.42-2.39.43-.28.48-.3.43-1.12C282.59,219.93,282.34,219.47,281.93,219.32Z" transform="translate(0 -110)"/><path class="cls-64" d="M311.22,214.65c-3.82,3.25-2.92,9.79-1.46,16.6s4.35,8.86,4.59,10.12c.18,1,1,12.77,1.36,18.32a13.34,13.34,0,0,0,5.51.65c2.84-.32,3.31-1.21,3.39-1.55-.06-5.32-.32-18-1.55-22.58C321.48,230.28,318.72,215.27,311.22,214.65Z" transform="translate(0 -110)"/><path class="cls-64" d="M324.62,258.66v0Z" transform="translate(0 -110)"/><path class="cls-64" d="M324.62,261.21v-2.52a.41.41,0,0,1,0,.1C324.62,260.29,324.62,261.21,324.62,261.21Z" transform="translate(0 -110)"/><path class="cls-23" d="M321.22,260.34a13.34,13.34,0,0,1-5.51-.65c.12,1.72.19,2.84.19,2.84a12.61,12.61,0,0,0,5.32.66c2.85-.52,3.4-2,3.4-2s0-.92,0-2.42C324.53,259.13,324.06,260,321.22,260.34Z" transform="translate(0 -110)"/><path class="cls-64" d="M298.78,303.62a34.06,34.06,0,0,0,.93,9.4,154.34,154.34,0,0,1,1.88-16.37c1.37-7.28-1.11-19.21-1.11-19.21S298.94,298,298.78,303.62Z" transform="translate(0 -110)"/><path class="cls-64" d="M289.88,277s.72-3.72,1.51-6.81,3.39-12.71,3.39-12.71-4.61,7.31-5.41,9.61C289.49,268.9,289.88,277,289.88,277Z" transform="translate(0 -110)"/><path class="cls-38" d="M303.49,203.77c.38-1.85-2.18-2.8-2.18-2.8a12.5,12.5,0,0,1,.7,3.19,3.81,3.81,0,0,1-1.34,3.28,9,9,0,0,1-5.06,1.23,3.07,3.07,0,0,1-2.53-1.77s.19,3.41,1.7,5.35c1.67,2.14,4.7,1.74,7-.88a21,21,0,0,0,2.16-3.2A10.37,10.37,0,0,1,303.49,203.77Z" transform="translate(0 -110)"/><path class="cls-46" d="M295.61,209.21a5.57,5.57,0,0,1-1.17.15,2.21,2.21,0,0,0,1.79,2c1.61.35,1.29-1.29,1.29-1.29A17.61,17.61,0,0,1,295.61,209.21Z" transform="translate(0 -110)"/><path class="cls-42" d="M300,192c-7.49-1.28-8.44,6.31-8.44,6.31a7.36,7.36,0,0,0,2.9,2.68c2,1,12.56,1.51,13.34-1.21S307.46,193.26,300,192Z" transform="translate(0 -110)"/><path class="cls-38" d="M307.78,197.33c-1.15-.39-5.38,0-7.8.69s-5.8-.05-8.09-1a.9.9,0,0,0-.35,1.3c.53.81,6.81,2.56,9.28,1.3s7.68-.72,7.68-.72A1.16,1.16,0,0,0,307.78,197.33Z" transform="translate(0 -110)"/><path class="cls-65" d="M311.6,213.41c-2.2-.91-2.59-3.55-2.2-5.24.67-2.95.38-6.4-2-7.2a8.63,8.63,0,0,0-5.28.41,9.1,9.1,0,0,1,1.13,6.8c-1,3.64.72,5.44,2.07,7.13,1.65,2.08,8.05,0,8.05,0A3.4,3.4,0,0,0,311.6,213.41Z" transform="translate(0 -110)"/><path class="cls-23" d="M305.94,197.18c-2.08-.62-3.76.4-5.31,1.33a9.79,9.79,0,0,1-5.77.9,10.31,10.31,0,0,1-3.32-1.12,10.52,10.52,0,0,1-2.88,2.21c-.32,1.55,1.89,1.59,2.88,2.79s1.85.67,3.4-.28,2.58-1.28,4-.48c2.05,1.12,3,1.16,4.5.41,1.21-.61,2.31-1.56,4.32.07s1.62,5.16,1.62,5.16a3.84,3.84,0,0,0,.87-4.29C309.19,201.35,310.39,198.51,305.94,197.18Z" transform="translate(0 -110)"/><path class="cls-64" d="M295.61,223.51a37.41,37.41,0,0,0-1.17,6.92l1.55.67s1.11-7.25,1.74-9.35,1-3.06,1-3.06l-1.47-.79S296.43,221,295.61,223.51Z" transform="translate(0 -110)"/></svg>